<svg fill="none" xmlns="http://www.w3.org/2000/svg" viewBox="0 0 403 54"><mask id="a" maskUnits="userSpaceOnUse" x="-.1" y="6.9" width="397" height="47" fill="#000"><path fill="#fff" d="M-.1 6.9h397v47H-.1z"/><path d="M14.7 49.4H4V10.9h11.5l10.7 14.4 5.6 8.9h.8l-.5-8.4v-15h10.8v38.6H31.3L19.9 34.6 15 27h-.8l.5 7.3v15.1ZM55.9 17.8H45v-7h10.8v7Zm0 31.6H45v-29h10.8v29ZM79.9 49.4h-7.6c-7.3 0-11.6-3.5-11.6-11v-9.1h-4.2v-8.9h4.2v-5h10.8v5H80v8.9h-8.4v7.5c0 2.3.7 2.9 3.2 2.9h5.2v9.7ZM92.1 49.4H81.3v-29h10.1V28h.6c.4-2.3 1.2-4.2 2.7-5.6a9.3 9.3 0 0 1 6.8-2.6c6.4 0 9 4.2 9 10v5.8H99.5v-3.4c0-2.4-.9-3.3-3.7-3.3-1.6 0-2.5.3-3.1.8-.5.6-.7 1.3-.7 2.4v17.3ZM140.5 45.3c-3 3-7.5 4.7-12.9 4.7-10 0-16.9-5.7-16.9-15 0-4.4 1.5-8 4-10.5 3-3 7.5-4.7 13-4.7 10 0 16.8 5.7 16.8 15.1 0 4.3-1.4 7.9-4 10.4Zm-12.9-4.9c2.6 0 4.1-.3 5-1.3 1-.8 1.2-2.2 1.2-4.2 0-4.2-1.3-5.6-6.2-5.6-2.5 0-4 .4-5 1.3-.9 1-1.2 2.3-1.2 4.3 0 4.2 1.3 5.5 6.2 5.5ZM163.7 49.4h-10.9V10.9h14.7l7 16 3.9 10h.7l3.6-10 6.8-16H204v38.5h-10.8v-16l.4-6.4h-.7l-2.2 6.5L185 47h-13l-5.8-13.6L164 27h-.8l.5 6.5v15.9ZM235.4 45.3c-3 3-7.5 4.7-13 4.7-10 0-16.8-5.7-16.8-15 0-4.4 1.4-8 4-10.5 3-3 7.4-4.7 12.9-4.7 10 0 16.9 5.7 16.9 15.1 0 4.3-1.5 7.9-4 10.4Zm-13-4.9c2.6 0 4.2-.3 5.1-1.3.9-.8 1.2-2.2 1.2-4.2 0-4.2-1.3-5.6-6.2-5.6-2.6 0-4.1.4-5 1.3-1 1-1.2 2.3-1.2 4.3 0 4.2 1.3 5.5 6.2 5.5ZM262.5 47.2c-1.8 1.9-4.6 2.8-8.5 2.8-8.9 0-13.8-5.7-13.8-15 0-5.1 1.4-9.1 4-11.7 2.2-2.2 5.4-3.5 9.3-3.5 6.9 0 10 3.3 11 8.1h.5v-17h10.8v38.5h-10.1v-7.8h-.6a10 10 0 0 1-2.6 5.6Zm-10.2-16c-.8.8-1.1 2-1.1 3.7 0 3.9 1.7 5.2 6.7 5.2 2.8 0 4.8-.3 6-1.5.7-.8 1.1-2 1.1-3.6v-.4c0-4.1-2.3-5-7.1-5-2.8 0-4.5.5-5.6 1.5ZM298.8 46.9c-1.8 1.8-4.7 3-8.8 3-8 0-11.9-4.6-11.9-11V20.5H289V35c0 4 1.6 5.3 6.5 5.3 2.7 0 4.3-.3 5.2-1.2.8-.8 1-2 1-3.7v-15h10.8v29h-10v-8.8h-.7c-.3 2.3-1.2 4.6-2.9 6.3ZM325.3 49.4h-10.8V10.9h10.8v38.5ZM357 45.6c-2.8 2.7-7.3 4.4-13.2 4.4-9.8 0-16.7-4.2-16.7-15 0-4.5 1.4-8 4-10.6 3-3 7.3-4.6 12.5-4.6 10 0 16.3 5 16.3 14.4l-.1 2.7H337c.1 3.5 1.7 4.5 6.3 4.5 2.8 0 4.3-.3 5-1 .4-.4.5-.9.5-1.5v-.6h10.8v.7c0 2.6-1 4.8-2.8 6.6Zm-13.7-17.5c-2.6 0-4.2.4-5 1.3-.6.5-.9 1.2-1 2h12.2c-.4-2.4-2.1-3.3-6.2-3.3ZM390 46c-2.4 2.5-6.8 4-12.7 4-10.3 0-15.7-4-15.7-10.7v-.2h10.8v.6c0 1.6 1 1.8 5 1.8 2.5 0 3.5-.2 4-.7.2-.2.2-.4.2-.7 0-1-.4-1.2-3.1-1.5l-8.4-.9c-6-.6-9.2-3.4-9.2-8.3a8 8 0 0 1 2.3-5.8c2.3-2.3 6.3-3.8 12.6-3.8 10 0 15.4 3.7 15.4 10.8v.2h-10.8v-.3c0-1.5-.6-2.2-5-2.2-2.2 0-3.2.2-3.6.6-.2.3-.3.6-.3 1 0 .8.5 1.2 3.9 1.5l5.7.6c8.5 1 11.2 3.8 11.2 8.7 0 2-.8 3.8-2.3 5.3Z"/></mask><path d="M14.7 49.4H4V10.9h11.5l10.7 14.4 5.6 8.9h.8l-.5-8.4v-15h10.8v38.6H31.3L19.9 34.6 15 27h-.8l.5 7.3v15.1ZM55.9 17.8H45v-7h10.8v7Zm0 31.6H45v-29h10.8v29ZM79.9 49.4h-7.6c-7.3 0-11.6-3.5-11.6-11v-9.1h-4.2v-8.9h4.2v-5h10.8v5H80v8.9h-8.4v7.5c0 2.3.7 2.9 3.2 2.9h5.2v9.7ZM92.1 49.4H81.3v-29h10.1V28h.6c.4-2.3 1.2-4.2 2.7-5.6a9.3 9.3 0 0 1 6.8-2.6c6.4 0 9 4.2 9 10v5.8H99.5v-3.4c0-2.4-.9-3.3-3.7-3.3-1.6 0-2.5.3-3.1.8-.5.6-.7 1.3-.7 2.4v17.3ZM140.5 45.3c-3 3-7.5 4.7-12.9 4.7-10 0-16.9-5.7-16.9-15 0-4.4 1.5-8 4-10.5 3-3 7.5-4.7 13-4.7 10 0 16.8 5.7 16.8 15.1 0 4.3-1.4 7.9-4 10.4Zm-12.9-4.9c2.6 0 4.1-.3 5-1.3 1-.8 1.2-2.2 1.2-4.2 0-4.2-1.3-5.6-6.2-5.6-2.5 0-4 .4-5 1.3-.9 1-1.2 2.3-1.2 4.3 0 4.2 1.3 5.5 6.2 5.5ZM163.7 49.4h-10.9V10.9h14.7l7 16 3.9 10h.7l3.6-10 6.8-16H204v38.5h-10.8v-16l.4-6.4h-.7l-2.2 6.5L185 47h-13l-5.8-13.6L164 27h-.8l.5 6.5v15.9ZM235.4 45.3c-3 3-7.5 4.7-13 4.7-10 0-16.8-5.7-16.8-15 0-4.4 1.4-8 4-10.5 3-3 7.4-4.7 12.9-4.7 10 0 16.9 5.7 16.9 15.1 0 4.3-1.5 7.9-4 10.4Zm-13-4.9c2.6 0 4.2-.3 5.1-1.3.9-.8 1.2-2.2 1.2-4.2 0-4.2-1.3-5.6-6.2-5.6-2.6 0-4.1.4-5 1.3-1 1-1.2 2.3-1.2 4.3 0 4.2 1.3 5.5 6.2 5.5ZM262.5 47.2c-1.8 1.9-4.6 2.8-8.5 2.8-8.9 0-13.8-5.7-13.8-15 0-5.1 1.4-9.1 4-11.7 2.2-2.2 5.4-3.5 9.3-3.5 6.9 0 10 3.3 11 8.1h.5v-17h10.8v38.5h-10.1v-7.8h-.6a10 10 0 0 1-2.6 5.6Zm-10.2-16c-.8.8-1.1 2-1.1 3.7 0 3.9 1.7 5.2 6.7 5.2 2.8 0 4.8-.3 6-1.5.7-.8 1.1-2 1.1-3.6v-.4c0-4.1-2.3-5-7.1-5-2.8 0-4.5.5-5.6 1.5ZM298.8 46.9c-1.8 1.8-4.7 3-8.8 3-8 0-11.9-4.6-11.9-11V20.5H289V35c0 4 1.6 5.3 6.5 5.3 2.7 0 4.3-.3 5.2-1.2.8-.8 1-2 1-3.7v-15h10.8v29h-10v-8.8h-.7c-.3 2.3-1.2 4.6-2.9 6.3ZM325.3 49.4h-10.8V10.9h10.8v38.5ZM357 45.6c-2.8 2.7-7.3 4.4-13.2 4.4-9.8 0-16.7-4.2-16.7-15 0-4.5 1.4-8 4-10.6 3-3 7.3-4.6 12.5-4.6 10 0 16.3 5 16.3 14.4l-.1 2.7H337c.1 3.5 1.7 4.5 6.3 4.5 2.8 0 4.3-.3 5-1 .4-.4.5-.9.5-1.5v-.6h10.8v.7c0 2.6-1 4.8-2.8 6.6Zm-13.7-17.5c-2.6 0-4.2.4-5 1.3-.6.5-.9 1.2-1 2h12.2c-.4-2.4-2.1-3.3-6.2-3.3ZM390 46c-2.4 2.5-6.8 4-12.7 4-10.3 0-15.7-4-15.7-10.7v-.2h10.8v.6c0 1.6 1 1.8 5 1.8 2.5 0 3.5-.2 4-.7.2-.2.2-.4.2-.7 0-1-.4-1.2-3.1-1.5l-8.4-.9c-6-.6-9.2-3.4-9.2-8.3a8 8 0 0 1 2.3-5.8c2.3-2.3 6.3-3.8 12.6-3.8 10 0 15.4 3.7 15.4 10.8v.2h-10.8v-.3c0-1.5-.6-2.2-5-2.2-2.2 0-3.2.2-3.6.6-.2.3-.3.6-.3 1 0 .8.5 1.2 3.9 1.5l5.7.6c8.5 1 11.2 3.8 11.2 8.7 0 2-.8 3.8-2.3 5.3Z" fill="#232A3F" style="fill:color(display-p3 .1373 .1647 .2471);fill-opacity:1"/><path d="M14.7 49.4H4V10.9h11.5l10.7 14.4 5.6 8.9h.8l-.5-8.4v-15h10.8v38.6H31.3L19.9 34.6 15 27h-.8l.5 7.3v15.1ZM55.9 17.8H45v-7h10.8v7Zm0 31.6H45v-29h10.8v29ZM79.9 49.4h-7.6c-7.3 0-11.6-3.5-11.6-11v-9.1h-4.2v-8.9h4.2v-5h10.8v5H80v8.9h-8.4v7.5c0 2.3.7 2.9 3.2 2.9h5.2v9.7ZM92.1 49.4H81.3v-29h10.1V28h.6c.4-2.3 1.2-4.2 2.7-5.6a9.3 9.3 0 0 1 6.8-2.6c6.4 0 9 4.2 9 10v5.8H99.5v-3.4c0-2.4-.9-3.3-3.7-3.3-1.6 0-2.5.3-3.1.8-.5.6-.7 1.3-.7 2.4v17.3ZM140.5 45.3c-3 3-7.5 4.7-12.9 4.7-10 0-16.9-5.7-16.9-15 0-4.4 1.5-8 4-10.5 3-3 7.5-4.7 13-4.7 10 0 16.8 5.7 16.8 15.1 0 4.3-1.4 7.9-4 10.4Zm-12.9-4.9c2.6 0 4.1-.3 5-1.3 1-.8 1.2-2.2 1.2-4.2 0-4.2-1.3-5.6-6.2-5.6-2.5 0-4 .4-5 1.3-.9 1-1.2 2.3-1.2 4.3 0 4.2 1.3 5.5 6.2 5.5ZM163.7 49.4h-10.9V10.9h14.7l7 16 3.9 10h.7l3.6-10 6.8-16H204v38.5h-10.8v-16l.4-6.4h-.7l-2.2 6.5L185 47h-13l-5.8-13.6L164 27h-.8l.5 6.5v15.9ZM235.4 45.3c-3 3-7.5 4.7-13 4.7-10 0-16.8-5.7-16.8-15 0-4.4 1.4-8 4-10.5 3-3 7.4-4.7 12.9-4.7 10 0 16.9 5.7 16.9 15.1 0 4.3-1.5 7.9-4 10.4Zm-13-4.9c2.6 0 4.2-.3 5.1-1.3.9-.8 1.2-2.2 1.2-4.2 0-4.2-1.3-5.6-6.2-5.6-2.6 0-4.1.4-5 1.3-1 1-1.2 2.3-1.2 4.3 0 4.2 1.3 5.5 6.2 5.5ZM262.5 47.2c-1.8 1.9-4.6 2.8-8.5 2.8-8.9 0-13.8-5.7-13.8-15 0-5.1 1.4-9.1 4-11.7 2.2-2.2 5.4-3.5 9.3-3.5 6.9 0 10 3.3 11 8.1h.5v-17h10.8v38.5h-10.1v-7.8h-.6a10 10 0 0 1-2.6 5.6Zm-10.2-16c-.8.8-1.1 2-1.1 3.7 0 3.9 1.7 5.2 6.7 5.2 2.8 0 4.8-.3 6-1.5.7-.8 1.1-2 1.1-3.6v-.4c0-4.1-2.3-5-7.1-5-2.8 0-4.5.5-5.6 1.5ZM298.8 46.9c-1.8 1.8-4.7 3-8.8 3-8 0-11.9-4.6-11.9-11V20.5H289V35c0 4 1.6 5.3 6.5 5.3 2.7 0 4.3-.3 5.2-1.2.8-.8 1-2 1-3.7v-15h10.8v29h-10v-8.8h-.7c-.3 2.3-1.2 4.6-2.9 6.3ZM325.3 49.4h-10.8V10.9h10.8v38.5ZM357 45.6c-2.8 2.7-7.3 4.4-13.2 4.4-9.8 0-16.7-4.2-16.7-15 0-4.5 1.4-8 4-10.6 3-3 7.3-4.6 12.5-4.6 10 0 16.3 5 16.3 14.4l-.1 2.7H337c.1 3.5 1.7 4.5 6.3 4.5 2.8 0 4.3-.3 5-1 .4-.4.5-.9.5-1.5v-.6h10.8v.7c0 2.6-1 4.8-2.8 6.6Zm-13.7-17.5c-2.6 0-4.2.4-5 1.3-.6.5-.9 1.2-1 2h12.2c-.4-2.4-2.1-3.3-6.2-3.3ZM390 46c-2.4 2.5-6.8 4-12.7 4-10.3 0-15.7-4-15.7-10.7v-.2h10.8v.6c0 1.6 1 1.8 5 1.8 2.5 0 3.5-.2 4-.7.2-.2.2-.4.2-.7 0-1-.4-1.2-3.1-1.5l-8.4-.9c-6-.6-9.2-3.4-9.2-8.3a8 8 0 0 1 2.3-5.8c2.3-2.3 6.3-3.8 12.6-3.8 10 0 15.4 3.7 15.4 10.8v.2h-10.8v-.3c0-1.5-.6-2.2-5-2.2-2.2 0-3.2.2-3.6.6-.2.3-.3.6-.3 1 0 .8.5 1.2 3.9 1.5l5.7.6c8.5 1 11.2 3.8 11.2 8.7 0 2-.8 3.8-2.3 5.3Z" stroke="#232A3F" style="stroke:color(display-p3 .1373 .1647 .2471);stroke-opacity:1" stroke-width="7.6" stroke-linejoin="round" mask="url(#a)"/><path d="M399.9 23.9a1.9 1.9 0 0 0-3.3-1.4l-6.7 6.8a2 2 0 0 0-.6 1.3v.2a1.9 1.9 0 0 0 3.3 1.4l6.7-6.8c.4-.3.6-.8.6-1.3v-.2Z" fill="#232A3F" stroke="#232A3F" style="fill:color(display-p3 .1373 .1647 .2471);fill-opacity:1;stroke:color(display-p3 .1373 .1647 .2471);stroke-opacity:1" stroke-width="3.8" stroke-linejoin="round"/><path d="M382.6 11.2c-.5 0-1 .2-1.4.6l-6.7 6.7a1.9 1.9 0 0 0 1.3 3.3c4.9 0 8.3.8 10.4 2.3 2 1.4 3.1 3.5 3.1 6.5a1.9 1.9 0 0 0 3.3 1.3l6.7-6.7c.4-.3.6-.8.6-1.3a11 11 0 0 0-4.8-9.6 22 22 0 0 0-12.5-3Z" fill="#232A3F" stroke="#232A3F" style="fill:color(display-p3 .1373 .1647 .2471);fill-opacity:1;stroke:color(display-p3 .1373 .1647 .2471);stroke-opacity:1" stroke-width="3.8" stroke-linejoin="round"/><path d="M399.3 25.4a1.9 1.9 0 0 0-1.3-3.2h-10.8c-.5 0-1 .2-1.4.5l-6.7 6.8a1.9 1.9 0 0 0 1.3 3.2h10.8c.5 0 1-.2 1.4-.5l6.7-6.8Z" fill="#232A3F" stroke="#232A3F" style="fill:color(display-p3 .1373 .1647 .2471);fill-opacity:1;stroke:color(display-p3 .1373 .1647 .2471);stroke-opacity:1" stroke-width="3.8" stroke-linejoin="round"/><path d="M388 23.4c-.5 0-1 .1-1.5.6l-6.7 6.7a1.9 1.9 0 0 0 1.1 3.2c4.1.5 6.5 1.4 7.7 2.4 1.2 1 1.8 2.3 1.8 4.4a1.9 1.9 0 0 0 3.2 1.3l6.7-6.7c.4-.4.6-.9.6-1.4 0-2.8-.8-5.3-3-7.2a18.3 18.3 0 0 0-9.8-3.3Z" fill="#232A3F" stroke="#232A3F" style="fill:color(display-p3 .1373 .1647 .2471);fill-opacity:1;stroke:color(display-p3 .1373 .1647 .2471);stroke-opacity:1" stroke-width="3.8" stroke-linejoin="round"/><path d="M388.5 25.4c.4-.3.6-.8.6-1.3v-.3a2 2 0 0 0-3.3-1.4l-6.7 6.7c-.4.4-.6.9-.6 1.4v.3a2 2 0 0 0 3.3 1.4l6.7-6.8Z" fill="#232A3F" stroke="#232A3F" style="fill:color(display-p3 .1373 .1647 .2471);fill-opacity:1;stroke:color(display-p3 .1373 .1647 .2471);stroke-opacity:1" stroke-width="3.8" stroke-linejoin="round"/><path d="M388.5 25.1c.4-.4.6-.8.6-1.3s0-1.2-.4-1.8c-.3-.7-.8-1.2-1.5-1.6-.6-.3-1.4-.5-2.1-.6l-2.9-.1a2 2 0 0 0-1.3.5L374 27a1.9 1.9 0 0 0 1.4 3.2 18.8 18.8 0 0 1 3 .3 1.9 1.9 0 0 0 3.3 1.3l6.7-6.7ZM400.9 34a2 2 0 0 0-3.2-1.4l-6.8 6.7c-.3.4-.5.9-.5 1.4 0 1.5-.6 2.8-1.7 4a1.9 1.9 0 0 0 2.7 2.7l6.7-6.8a9.3 9.3 0 0 0 2.8-6.7ZM361.9 22.3a1.9 1.9 0 0 0 2.7 2.7c1.7-1.8 5.1-3.2 11.2-3.2.5 0 1-.2 1.4-.6l6.7-6.7a2 2 0 0 0-1.3-3.3c-6.6 0-11.2 1.6-14 4.3l-6.7 6.8Z" fill="#232A3F" stroke="#232A3F" style="fill:color(display-p3 .1373 .1647 .2471);fill-opacity:1;stroke:color(display-p3 .1373 .1647 .2471);stroke-opacity:1" stroke-width="3.8" stroke-linejoin="round"/><path d="M382.3 22.8c-.6 0-1.1.1-1.5.5l-6.8 6.8a1.9 1.9 0 0 0 1.2 3.2l5.7.6a2 2 0 0 0 1.6-.5l6.7-6.8a1.9 1.9 0 0 0-1.1-3.2l-5.8-.6Z" fill="#232A3F" stroke="#232A3F" style="fill:color(display-p3 .1373 .1647 .2471);fill-opacity:1;stroke:color(display-p3 .1373 .1647 .2471);stroke-opacity:1" stroke-width="3.8" stroke-linejoin="round"/><path d="M383.6 23a1.9 1.9 0 0 0-1.4-3.3l-2.8.1a4 4 0 0 0-2.2 1l-6.7 6.8a2 2 0 0 0 2.5 2.8h.3c.4-.1 1-.2 2.2-.2.5 0 1-.2 1.3-.6l6.8-6.7Z" fill="#232A3F" stroke="#232A3F" style="fill:color(display-p3 .1373 .1647 .2471);fill-opacity:1;stroke:color(display-p3 .1373 .1647 .2471);stroke-opacity:1" stroke-width="3.8" stroke-linejoin="round"/><path d="M380 22.4a2 2 0 0 0-3.1-.6l-6.7 6.7c-.4.4-.6.8-.6 1.4 0 .3 0 .9.4 1.5s.9 1 1.4 1.1c.8.4 2.1.6 3.8.8.5 0 1.1-.1 1.5-.5l6.7-6.8a2 2 0 0 0-1.1-3.2 22.7 22.7 0 0 1-2.3-.4Z" fill="#232A3F" stroke="#232A3F" style="fill:color(display-p3 .1373 .1647 .2471);fill-opacity:1;stroke:color(display-p3 .1373 .1647 .2471);stroke-opacity:1" stroke-width="3.8" stroke-linejoin="round"/><path d="M377.2 20.8a1.9 1.9 0 0 1 3 2.4c0 .5-.3 1-.6 1.3l-6.7 6.7a2 2 0 0 1-3.3-1.3c0-.6 0-1.5.9-2.3l6.7-6.8Zm0 0Zm2.7 2.7ZM382.7 42.2l6.8-6.7c.7-.8.8-1.6.8-2.1A1.9 1.9 0 0 0 387 32l-6.7 6.7a2 2 0 0 0-.6 1.2 2 2 0 0 0 3 2.3Zm-3-2.1Z" fill="#232A3F" stroke="#232A3F" style="fill:color(display-p3 .1373 .1647 .2471);fill-opacity:1;stroke:color(display-p3 .1373 .1647 .2471);stroke-opacity:1" stroke-width="3.8" stroke-linejoin="round"/><path d="M389.7 34.7c.4-.4.6-.8.6-1.3 0-.4 0-1-.4-1.5-.3-.6-.8-1-1.3-1.2-.8-.4-2-.5-3.2-.7-.6 0-1.1.2-1.5.6l-6.8 6.7a2 2 0 0 0 1.2 3.2 22 22 0 0 1 1.5.3 1.9 1.9 0 0 0 3.2.6l6.7-6.7Zm-10 5.4Z" fill="#232A3F" stroke="#232A3F" style="fill:color(display-p3 .1373 .1647 .2471);fill-opacity:1;stroke:color(display-p3 .1373 .1647 .2471);stroke-opacity:1" stroke-width="3.8" stroke-linejoin="round"/><path d="M384 32.8c-.5 0-1 .2-1.3.6L376 40a1.9 1.9 0 0 0 1.3 3.3c1.3 0 2.3 0 3.1-.2a4 4 0 0 0 2.3-1l6.8-6.7a1.9 1.9 0 0 0-2.6-2.9l-.3.1-2.5.1Z" fill="#232A3F" stroke="#232A3F" style="fill:color(display-p3 .1373 .1647 .2471);fill-opacity:1;stroke:color(display-p3 .1373 .1647 .2471);stroke-opacity:1" stroke-width="3.8" stroke-linejoin="round"/><path d="M386.6 33.3a1.9 1.9 0 0 0-1.2-3.3l-8.4-.9c-.6 0-1.1.1-1.5.5l-6.8 6.8a1.9 1.9 0 0 0 1.2 3.2l8.4 1a2 2 0 0 0 1.5-.6l6.8-6.7ZM395.4 38c-2 1.9-5.7 3.3-11.4 3.3-.5 0-1 .2-1.4.6l-6.7 6.7a1.9 1.9 0 0 0 1.4 3.3c6.2 0 11.1-1.6 14-4.5l6.8-6.8a1.9 1.9 0 0 0-2.7-2.7ZM369 24c.3-.4.5-.8.5-1.3a6 6 0 0 1 1.8-4.5 1.9 1.9 0 0 0-2.7-2.7l-6.7 6.8c-2 2-3 4.5-3 7a1.9 1.9 0 0 0 3.3 1.4L369 24Z" fill="#232A3F" stroke="#232A3F" style="fill:color(display-p3 .1373 .1647 .2471);fill-opacity:1;stroke:color(display-p3 .1373 .1647 .2471);stroke-opacity:1" stroke-width="3.8" stroke-linejoin="round"/><path d="M381 32.7a1.9 1.9 0 0 0-3.2-1.1l-6.8 6.7a2 2 0 0 0-.5 1.4c0 .6 0 1.3.5 2s1.2 1 1.8 1.3a41.7 41.7 0 0 0 4.5.4c.5 0 1-.2 1.4-.6l6.7-6.7a2 2 0 0 0-1.3-3.3 38.3 38.3 0 0 1-3.1-.1Zm0 .4Z" fill="#232A3F" stroke="#232A3F" style="fill:color(display-p3 .1373 .1647 .2471);fill-opacity:1;stroke:color(display-p3 .1373 .1647 .2471);stroke-opacity:1" stroke-width="3.8" stroke-linejoin="round"/><path d="M381 32.4a1.9 1.9 0 0 0-3.2-1.4l-6.8 6.8a2 2 0 0 0-.5 1.3v.6a1.9 1.9 0 0 0 3.2 1.3l6.8-6.7c.3-.4.5-.8.5-1.4v-.5Z" fill="#232A3F" stroke="#232A3F" style="fill:color(display-p3 .1373 .1647 .2471);fill-opacity:1;stroke:color(display-p3 .1373 .1647 .2471);stroke-opacity:1" stroke-width="3.8" stroke-linejoin="round"/><path d="M378.2 32.3a1.9 1.9 0 0 0-1.2-3.2 10 10 0 0 1-5.8-2c-1-1-1.7-2.5-1.7-4.4a1.9 1.9 0 0 0-3.2-1.4l-6.8 6.7a2 2 0 0 0-.5 1.4c0 2.9 1 5.4 3 7.2 2 1.7 4.7 2.7 7.9 3 .5 0 1.1-.1 1.5-.5l6.8-6.8Z" fill="#232A3F" stroke="#232A3F" style="fill:color(display-p3 .1373 .1647 .2471);fill-opacity:1;stroke:color(display-p3 .1373 .1647 .2471);stroke-opacity:1" stroke-width="3.8" stroke-linejoin="round"/><path d="M368.3 30.5c-.5 0-1 .2-1.3.5l-6.8 6.8a1.9 1.9 0 0 0 1.4 3.2h10.8c.5 0 1-.2 1.3-.5l6.8-6.8a1.9 1.9 0 0 0-1.4-3.2h-10.8Z" fill="#232A3F" stroke="#232A3F" style="fill:color(display-p3 .1373 .1647 .2471);fill-opacity:1;stroke:color(display-p3 .1373 .1647 .2471);stroke-opacity:1" stroke-width="3.8" stroke-linejoin="round"/><path d="M385.3 44.6a2 2 0 0 0-1.3-3.3c-5 0-8.4-1-10.6-2.4a7.1 7.1 0 0 1-3.2-6.3 1.9 1.9 0 0 0-3.2-1.3l-6.8 6.7a2 2 0 0 0-.5 1.3c0 4 1.6 7.2 4.8 9.4 3 2.2 7.4 3.2 12.8 3.2.5 0 1-.2 1.3-.6l6.7-6.7ZM350.3 11.2a2 2 0 0 0-1.4.6l-6.7 6.7a1.9 1.9 0 0 0 1.4 3.3c4.7 0 8.3 1.1 10.7 3.2 2.3 2 3.7 5 3.7 9.2a1.9 1.9 0 0 0 3.3 1.3l6.7-6.7c.4-.4.6-.9.6-1.4 0-5-1.8-9.2-5.1-12a20 20 0 0 0-13.2-4.2Z" fill="#232A3F" stroke="#232A3F" style="fill:color(display-p3 .1373 .1647 .2471);fill-opacity:1;stroke:color(display-p3 .1373 .1647 .2471);stroke-opacity:1" stroke-width="3.8" stroke-linejoin="round"/><path d="M368.6 27.4a1.9 1.9 0 0 0-3.3-1.3l-6.7 6.7a2 2 0 0 0-.6 1.4l-.1 2.5a1.9 1.9 0 0 0 3.2 1.6l6.8-6.8c.3-.3.4-.7.5-1.1l.2-3Z" fill="#232A3F" stroke="#232A3F" style="fill:color(display-p3 .1373 .1647 .2471);fill-opacity:1;stroke:color(display-p3 .1373 .1647 .2471);stroke-opacity:1" stroke-width="3.8" stroke-linejoin="round"/><path d="M369.6 34c.4-.4.6-.9.6-1.4v-.2A1.9 1.9 0 0 0 367 31l-6.8 6.8a2 2 0 0 0-.5 1.3v.2a1.9 1.9 0 0 0 3.2 1.4l6.7-6.8Z" fill="#232A3F" stroke="#232A3F" style="fill:color(display-p3 .1373 .1647 .2471);fill-opacity:1;stroke:color(display-p3 .1373 .1647 .2471);stroke-opacity:1" stroke-width="3.8" stroke-linejoin="round"/><path d="M368.4 31.6a1.9 1.9 0 0 0-3.3-1.4l-6.7 6.8a2 2 0 0 0-.6 1.3v.7a1.9 1.9 0 0 0 3.3 1.3l6.7-6.7c.3-.4.6-.8.6-1.3v-.7ZM357.6 26c.4-.4.6-1 .5-1.6a5.2 5.2 0 0 0-2.7-4c-1.4-.7-3.3-1-5.3-1a2 2 0 0 0-1.4.6l-6.7 6.8a1.9 1.9 0 0 0 1.3 3.2c2 0 3 .3 3.6.5.3.2.6.5.7 1.3a2 2 0 0 0 3.2 1l6.8-6.7Z" fill="#232A3F" stroke="#232A3F" style="fill:color(display-p3 .1373 .1647 .2471);fill-opacity:1;stroke:color(display-p3 .1373 .1647 .2471);stroke-opacity:1" stroke-width="3.8" stroke-linejoin="round"/><path d="M368.4 32.3a1.9 1.9 0 0 0-3.3-1.4l-6.7 6.7a2 2 0 0 0-.6 1.4c0 2-.8 3.8-2.2 5.3a1.9 1.9 0 0 0 2.7 2.7l6.7-6.8a11 11 0 0 0 3.4-8Z" fill="#232A3F" stroke="#232A3F" style="fill:color(display-p3 .1373 .1647 .2471);fill-opacity:1;stroke:color(display-p3 .1373 .1647 .2471);stroke-opacity:1" stroke-width="3.8" stroke-linejoin="round"/><path d="M355.6 29.7c-.5 0-1 .2-1.3.5l-6.7 6.8a1.9 1.9 0 0 0 1.3 3.2h10.8c.5 0 1-.2 1.4-.6l6.7-6.7a1.9 1.9 0 0 0-1.4-3.2h-10.8ZM329.8 23l6.7-6.7c3.4-3.4 8.2-5 13.8-5a1.9 1.9 0 0 1 1.3 3.2l-6.7 6.7a2 2 0 0 1-1.3.6c-4.8 0-8.6 1.4-11.2 4l-2.6-2.8Zm0 0a1.9 1.9 0 0 0 2.6 2.7l-2.6-2.6Zm1.3 1.4" fill="#232A3F" stroke="#232A3F" style="fill:color(display-p3 .1373 .1647 .2471);fill-opacity:1;stroke:color(display-p3 .1373 .1647 .2471);stroke-opacity:1" stroke-width="3.8" stroke-linejoin="round"/><path d="M351.4 22.7a1.9 1.9 0 0 0-1.3-3.2c-2.6 0-5 .3-6.5 1.8l-6.7 6.8a1.9 1.9 0 1 0 2.7 2.7c.3-.4 1.2-.8 3.7-.8.5 0 1-.2 1.4-.5l6.7-6.8Z" fill="#232A3F" stroke="#232A3F" style="fill:color(display-p3 .1373 .1647 .2471);fill-opacity:1;stroke:color(display-p3 .1373 .1647 .2471);stroke-opacity:1" stroke-width="3.8" stroke-linejoin="round"/><path d="M344 22.8c-.5 0-1 .2-1.4.6L336 30a1.9 1.9 0 0 0 1.3 3.3h12.3c.5 0 1-.2 1.3-.6l6.8-6.7a1.9 1.9 0 0 0-1.4-3.3H344Z" fill="#232A3F" stroke="#232A3F" style="fill:color(display-p3 .1373 .1647 .2471);fill-opacity:1;stroke:color(display-p3 .1373 .1647 .2471);stroke-opacity:1" stroke-width="3.8" stroke-linejoin="round"/><path d="M367.9 31.5a2 2 0 0 0-1.4-3.2h-22.7a2 2 0 0 0-1.4.5l-6.7 6.8a1.9 1.9 0 0 0 1.4 3.2h22.7c.5 0 1-.2 1.3-.5l6.8-6.8Z" fill="#232A3F" stroke="#232A3F" style="fill:color(display-p3 .1373 .1647 .2471);fill-opacity:1;stroke:color(display-p3 .1373 .1647 .2471);stroke-opacity:1" stroke-width="3.8" stroke-linejoin="round"/><path d="M357 33.5c.3-.3.5-.8.5-1.3v-.6a1.9 1.9 0 0 0-3.2-1.4l-6.7 6.8a2 2 0 0 0-.6 1.3v.6a1.9 1.9 0 0 0 3.3 1.4l6.7-6.8ZM321.3 2.2c-.5 0-1 .2-1.4.6l-6.7 6.7a2 2 0 0 0 1.3 3.3h10.8c.5 0 1-.2 1.4-.6l6.7-6.7a2 2 0 0 0-1.3-3.3h-10.8Z" fill="#232A3F" stroke="#232A3F" style="fill:color(display-p3 .1373 .1647 .2471);fill-opacity:1;stroke:color(display-p3 .1373 .1647 .2471);stroke-opacity:1" stroke-width="3.8" stroke-linejoin="round"/><path d="M349.7 41.7a1.9 1.9 0 0 1-2.7-2.6V39c0-.5.2-1 .6-1.3l6.7-6.7a2 2 0 0 1 3.2 1.3c0 1-.2 2-1 2.8l-6.8 6.7Zm0 0 6.8-6.7-6.8 6.7ZM343.6 21.3a1.9 1.9 0 0 1 2.7 2.7l-.5 1c0 .5-.2.8-.5 1l-6.7 6.8a1.9 1.9 0 0 1-3.2-1.7c.2-1.1.6-2.2 1.5-3l6.7-6.8Zm0 0-6.7 6.8 6.7-6.8Z" fill="#232A3F" stroke="#232A3F" style="fill:color(display-p3 .1373 .1647 .2471);fill-opacity:1;stroke:color(display-p3 .1373 .1647 .2471);stroke-opacity:1" stroke-width="3.8" stroke-linejoin="round"/><path d="M350.1 32.8c-.5 0-1 .2-1.3.5l-6.8 6.8a1.9 1.9 0 0 0 1.4 3.2c1.5 0 2.7 0 3.7-.3 1-.2 2-.5 2.6-1.3l6.8-6.7a1.9 1.9 0 0 0-2.7-2.7l-.8.3-2.9.2Z" fill="#232A3F" stroke="#232A3F" style="fill:color(display-p3 .1373 .1647 .2471);fill-opacity:1;stroke:color(display-p3 .1373 .1647 .2471);stroke-opacity:1" stroke-width="3.8" stroke-linejoin="round"/><path d="M362.3 37.5c-2.2 2.3-6.2 3.8-11.8 3.8a2 2 0 0 0-1.3.6l-6.8 6.7a1.9 1.9 0 0 0 1.4 3.3c6.2 0 11.3-1.7 14.5-5l6.7-6.7a1.9 1.9 0 0 0-2.7-2.7ZM345.7 30a1.9 1.9 0 0 0-3.3-1.2l-6.7 6.8a2 2 0 0 0-.5 1.4c0 2 .6 3.9 2.3 5 1.5 1.1 3.6 1.3 5.9 1.3.5 0 1-.2 1.3-.5l6.8-6.8a1.9 1.9 0 0 0-1.4-3.2c-2.3 0-3.3-.3-3.7-.6-.3-.2-.6-.6-.7-2.1ZM335.1 29.5c.4-.3.6-.8.6-1.3 0-4 1.3-7 3.5-9.2a1.9 1.9 0 0 0-2.7-2.7l-6.7 6.8c-3 2.9-4.6 7-4.6 11.8a1.9 1.9 0 0 0 3.2 1.4l6.7-6.8Z" fill="#232A3F" stroke="#232A3F" style="fill:color(display-p3 .1373 .1647 .2471);fill-opacity:1;stroke:color(display-p3 .1373 .1647 .2471);stroke-opacity:1" stroke-width="3.8" stroke-linejoin="round"/><path d="M334 4.1a1.9 1.9 0 0 0-3.3-1.3L324 9.5a2 2 0 0 0-.6 1.4v38.5a1.9 1.9 0 0 0 3.3 1.3l6.7-6.7c.4-.3.6-.8.6-1.3V4Z" fill="#232A3F" stroke="#232A3F" style="fill:color(display-p3 .1373 .1647 .2471);fill-opacity:1;stroke:color(display-p3 .1373 .1647 .2471);stroke-opacity:1" stroke-width="3.8" stroke-linejoin="round"/><path d="M351.9 44.6a2 2 0 0 0-1.4-3.3 17 17 0 0 1-10.8-3c-2.4-2-4-5.1-4-10.1a1.9 1.9 0 0 0-3.3-1.4l-6.7 6.8c-.3.3-.5.8-.5 1.3 0 5.9 1.8 10.2 5.3 13 3.5 2.9 8.1 4 13.3 4 .5 0 1-.2 1.3-.6l6.8-6.7ZM308.4 11.8c-.5 0-1 .2-1.4.5l-6.7 6.8a1.9 1.9 0 0 0 1.3 3.2h10.8c.5 0 1-.2 1.4-.5l6.7-6.8a1.9 1.9 0 0 0-1.3-3.2h-10.8Z" fill="#232A3F" stroke="#232A3F" style="fill:color(display-p3 .1373 .1647 .2471);fill-opacity:1;stroke:color(display-p3 .1373 .1647 .2471);stroke-opacity:1" stroke-width="3.8" stroke-linejoin="round"/><path d="M322.6 44c.4-.3.6-.8.6-1.3V4a1.9 1.9 0 0 0-3.3-1.3l-6.7 6.7a2 2 0 0 0-.6 1.4v38.5a1.9 1.9 0 0 0 3.3 1.3l6.7-6.7Z" fill="#232A3F" stroke="#232A3F" style="fill:color(display-p3 .1373 .1647 .2471);fill-opacity:1;stroke:color(display-p3 .1373 .1647 .2471);stroke-opacity:1" stroke-width="3.8" stroke-linejoin="round"/><path d="M321 13.7a1.9 1.9 0 0 0-3.2-1.4l-6.7 6.8a2 2 0 0 0-.6 1.3v29a1.9 1.9 0 0 0 3.3 1.3l6.7-6.7c.4-.3.6-.8.6-1.3v-29ZM309.7 30c.4-.4.6-.9.6-1.4v-15a2 2 0 0 0-3.3-1.3l-6.7 6.8c-.4.3-.6.8-.6 1.3v15a1.9 1.9 0 0 0 3.3 1.3l6.7-6.7Z" fill="#232A3F" stroke="#232A3F" style="fill:color(display-p3 .1373 .1647 .2471);fill-opacity:1;stroke:color(display-p3 .1373 .1647 .2471);stroke-opacity:1" stroke-width="3.8" stroke-linejoin="round"/><path d="M333.4 44a2 2 0 0 0-1.3-3.2h-10.8c-.5 0-1 .2-1.4.5l-6.7 6.8a2 2 0 0 0 1.3 3.2h10.8c.5 0 1-.2 1.4-.6l6.7-6.7ZM299.2 37.7a1.9 1.9 0 0 0 2.7 2.7m-2.7-2.7 2.7 2.7m-2.7-2.7Zm2.7 2.7Zm0 0 6.8-6.7-6.8 6.7Zm0 0a6.2 6.2 0 0 0 1.6-4.2l-1.6 4.2ZM284.9 11.8c-.6 0-1 .2-1.4.5l-6.7 6.8a2 2 0 0 0 1.3 3.2H289c.5 0 1-.2 1.4-.5L297 15a2 2 0 0 0-1.3-3.2h-10.8Z" fill="#232A3F" stroke="#232A3F" style="fill:color(display-p3 .1373 .1647 .2471);fill-opacity:1;stroke:color(display-p3 .1373 .1647 .2471);stroke-opacity:1" stroke-width="3.8" stroke-linejoin="round"/><path d="M310.4 35.2a1.9 1.9 0 0 0-1.3-3.2h-.6a2 2 0 0 0-1.4.5l-6.7 6.8a2 2 0 0 0 1.3 3.2h.6c.5 0 1-.2 1.4-.6l6.7-6.7ZM297.6 13.7a1.9 1.9 0 0 0-3.3-1.4l-6.7 6.8a2 2 0 0 0-.6 1.3V35a1.9 1.9 0 0 0 3.3 1.4l6.7-6.8c.4-.3.6-.8.6-1.3V13.7ZM271.7 2.2a2 2 0 0 0-1.3.6l-6.7 6.7a1.9 1.9 0 0 0 1.3 3.3h10.8c.5 0 1-.2 1.4-.6l6.7-6.7a1.9 1.9 0 0 0-1.3-3.3h-10.9Z" fill="#232A3F" stroke="#232A3F" style="fill:color(display-p3 .1373 .1647 .2471);fill-opacity:1;stroke:color(display-p3 .1373 .1647 .2471);stroke-opacity:1" stroke-width="3.8" stroke-linejoin="round"/><path d="M302.2 31.7c-.6 0-1 .2-1.4.5l-6.7 6.8a2 2 0 0 0 1.3 3.2c2.7 0 5-.3 6.5-1.8l6.8-6.7A1.9 1.9 0 1 0 306 31c-.3.3-1.1.7-3.8.7ZM320.5 44a1.9 1.9 0 0 0-1.3-3.2H309a2 2 0 0 0-1.4.5l-6.7 6.8a1.9 1.9 0 0 0 1.3 3.2h10.1c.5 0 1-.2 1.4-.6l6.7-6.7Z" fill="#232A3F" stroke="#232A3F" style="fill:color(display-p3 .1373 .1647 .2471);fill-opacity:1;stroke:color(display-p3 .1373 .1647 .2471);stroke-opacity:1" stroke-width="3.8" stroke-linejoin="round"/><path d="M310.4 44c.4-.3.6-.8.6-1.3v-8.8a1.9 1.9 0 0 0-3.3-1.4l-6.7 6.8c-.4.3-.6.8-.6 1.3v8.8a1.9 1.9 0 0 0 3.3 1.3l6.7-6.7Z" fill="#232A3F" stroke="#232A3F" style="fill:color(display-p3 .1373 .1647 .2471);fill-opacity:1;stroke:color(display-p3 .1373 .1647 .2471);stroke-opacity:1" stroke-width="3.8" stroke-linejoin="round"/><path d="M310.4 34.1a1.9 1.9 0 0 0-3.3-1.6l-6.7 6.8c-.3.3-.5.6-.5 1-.3 2-1 3.9-2.4 5.2a1.9 1.9 0 0 0 2.7 2.7l6.7-6.7c2-2.1 3.1-4.8 3.5-7.4ZM297.6 28.3a1.9 1.9 0 0 0-3.3-1.4l-6.7 6.8a2 2 0 0 0-.6 1.3c0 2.2.4 4.3 2.1 5.7 1.6 1.2 3.8 1.5 6.3 1.5.5 0 1-.2 1.4-.5l6.7-6.8a1.9 1.9 0 0 0-1.3-3.2c-2.5 0-3.5-.4-4-.7-.3-.3-.6-.9-.6-2.7ZM286.2 33.6c.4-.4.6-.8.6-1.3V13.7a1.9 1.9 0 0 0-3.3-1.4l-6.7 6.8c-.4.3-.6.8-.6 1.3V39a2 2 0 0 0 3.3 1.3l6.7-6.7Z" fill="#232A3F" stroke="#232A3F" style="fill:color(display-p3 .1373 .1647 .2471);fill-opacity:1;stroke:color(display-p3 .1373 .1647 .2471);stroke-opacity:1" stroke-width="3.8" stroke-linejoin="round"/><path d="M304.2 38.8Zm0 0c-1.4 1.4-3.7 2.5-7.4 2.5-.6 0-1 .2-1.4.6l-6.7 6.7A2 2 0 0 0 290 52c4.5 0 7.9-1.4 10.2-3.7l6.7-6.7-2.7-2.7Zm2.7 2.7a1.9 1.9 0 0 0-2.7-2.7l2.7 2.7ZM284.5 4.1a1.9 1.9 0 0 0-3.3-1.3l-6.7 6.7c-.4.4-.6.9-.6 1.4v38.5a2 2 0 0 0 3.3 1.3l6.7-6.7c.4-.3.6-.8.6-1.3V4ZM273.1 22.5c.4-.3.6-.8.6-1.3v-17a1.9 1.9 0 0 0-3.3-1.4l-6.7 6.7a2 2 0 0 0-.6 1.4v17a1.9 1.9 0 0 0 3.3 1.3l6.7-6.7Z" fill="#232A3F" stroke="#232A3F" style="fill:color(display-p3 .1373 .1647 .2471);fill-opacity:1;stroke:color(display-p3 .1373 .1647 .2471);stroke-opacity:1" stroke-width="3.8" stroke-linejoin="round"/><path d="M298.1 44.6a1.9 1.9 0 0 0-1.3-3.3c-3.7 0-6.2-1-7.7-2.5a8.9 8.9 0 0 1-2.3-6.5 2 2 0 0 0-3.3-1.4l-6.7 6.7c-.4.4-.6.9-.6 1.4 0 3.5 1 6.8 3.5 9.2 2.4 2.4 5.9 3.7 10.3 3.7.5 0 1-.2 1.4-.6l6.7-6.7ZM271.2 19.3a2 2 0 0 0-1.4.5l-6.7 6.8a1.9 1.9 0 0 0 1.3 3.2h.6c.5 0 1-.2 1.4-.6l6.7-6.7a2 2 0 0 0-1.4-3.2h-.5Z" fill="#232A3F" stroke="#232A3F" style="fill:color(display-p3 .1373 .1647 .2471);fill-opacity:1;stroke:color(display-p3 .1373 .1647 .2471);stroke-opacity:1" stroke-width="3.8" stroke-linejoin="round"/><path d="M260.3 11.2c-.6 0-1 .2-1.4.6l-6.7 6.7a2 2 0 0 0 1.3 3.3c3.1 0 5.2.7 6.5 1.8 1.4 1 2.2 2.6 2.6 4.6a2 2 0 0 0 3.2 1l6.7-6.7c.5-.4.7-1 .5-1.7-.4-2.7-1.6-5.2-3.9-7a13.9 13.9 0 0 0-8.8-2.6ZM273.1 29.6c.4-.4.6-.9.6-1.4v-.4a1.9 1.9 0 0 0-3.3-1.3l-6.7 6.7a2 2 0 0 0-.6 1.4v.4a1.9 1.9 0 0 0 3.3 1.3l6.7-6.7Z" fill="#232A3F" stroke="#232A3F" style="fill:color(display-p3 .1373 .1647 .2471);fill-opacity:1;stroke:color(display-p3 .1373 .1647 .2471);stroke-opacity:1" stroke-width="3.8" stroke-linejoin="round"/><path d="M273.1 29.2c.4-.4.6-.9.6-1.4 0-2.4-.8-4.4-2.7-5.6-1.7-1-4-1.2-6.4-1.2-.5 0-1 .2-1.3.6l-6.8 6.7a1.9 1.9 0 0 0 1.4 3.3c2.4 0 3.7.2 4.4.6.4.3.8.7.8 2.4a1.9 1.9 0 0 0 3.3 1.3l6.7-6.7Z" fill="#232A3F" stroke="#232A3F" style="fill:color(display-p3 .1373 .1647 .2471);fill-opacity:1;stroke:color(display-p3 .1373 .1647 .2471);stroke-opacity:1" stroke-width="3.8" stroke-linejoin="round"/><path d="M265.2 40a1.9 1.9 0 0 1-2.7-2.7m2.7 2.7-2.7-2.7m0 0c.3-.3.6-.9.6-2.3 0-.5.2-1 .6-1.4l6.7-6.7a2 2 0 0 1 3.3 1.3c0 2-.5 3.8-1.8 5l-6.7 6.8m-2.7-2.7 2.7 2.7M242.9 24.6a2 2 0 0 1 0-2.7v2.7Zm0 0c.7.8 2 .8 2.6 0H243Zm0-2.7 2.7 2.7c1.8-1.8 4.4-2.8 8-2.8.4 0 1-.2 1.3-.6l6.7-6.7a2 2 0 0 0-1.3-3.3c-4.4 0-8 1.4-10.7 4l-6.7 6.7ZM266 24.3a1.9 1.9 0 0 0-1.4-3.3c-2.8 0-5.3.4-6.9 2l-6.7 6.8a1.9 1.9 0 1 0 2.7 2.7c.4-.5 1.5-1 4.2-1 .5 0 1-.1 1.3-.5l6.8-6.7Z" fill="#232A3F" stroke="#232A3F" style="fill:color(display-p3 .1373 .1647 .2471);fill-opacity:1;stroke:color(display-p3 .1373 .1647 .2471);stroke-opacity:1" stroke-width="3.8" stroke-linejoin="round"/><path d="M273.8 36.2a2 2 0 0 0-1.4-3.3h-.5c-.5 0-1 .2-1.4.6l-6.7 6.7a1.9 1.9 0 0 0 1.3 3.3h.6c.5 0 1-.2 1.4-.6l6.7-6.7Z" fill="#232A3F" stroke="#232A3F" style="fill:color(display-p3 .1373 .1647 .2471);fill-opacity:1;stroke:color(display-p3 .1373 .1647 .2471);stroke-opacity:1" stroke-width="3.8" stroke-linejoin="round"/><path d="M264.6 31.4c-.5 0-1 .2-1.3.6l-6.8 6.7A1.9 1.9 0 0 0 258 42c1.5 0 2.8 0 4-.4 1.2-.2 2.4-.7 3.3-1.6l6.7-6.8a2 2 0 0 0-2.7-2.7c-.2.3-.6.5-1.4.7-.8.2-1.8.2-3.2.2ZM283.9 44a2 2 0 0 0-1.3-3.2h-10.2a2 2 0 0 0-1.3.5l-6.7 6.8a2 2 0 0 0 1.3 3.2h10.1c.5 0 1-.2 1.4-.6l6.7-6.7Z" fill="#232A3F" stroke="#232A3F" style="fill:color(display-p3 .1373 .1647 .2471);fill-opacity:1;stroke:color(display-p3 .1373 .1647 .2471);stroke-opacity:1" stroke-width="3.8" stroke-linejoin="round"/><path d="M273.8 44c.3-.3.5-.8.5-1.3v-7.9a1.9 1.9 0 0 0-3.2-1.3l-6.7 6.7c-.4.4-.6.9-.6 1.4v7.8a1.9 1.9 0 0 0 3.3 1.3l6.7-6.7Z" fill="#232A3F" stroke="#232A3F" style="fill:color(display-p3 .1373 .1647 .2471);fill-opacity:1;stroke:color(display-p3 .1373 .1647 .2471);stroke-opacity:1" stroke-width="3.8" stroke-linejoin="round"/><path d="M273.7 35.1a1.9 1.9 0 0 0-3.2-1.6l-6.7 6.7c-.3.3-.5.7-.6 1a8 8 0 0 1-2 4.7 1.9 1.9 0 0 0 2.7 2.7l6.7-6.7c1.7-1.8 2.7-4 3.1-6.8ZM260.4 25.7a1.9 1.9 0 0 0-2.7-2.7l-6.7 6.8c-1.4 1.3-1.7 3.2-1.7 5.1a1.9 1.9 0 0 0 3.2 1.4l6.7-6.8c.4-.3.6-.8.6-1.3 0-1.5.3-2.2.6-2.5Z" fill="#232A3F" stroke="#232A3F" style="fill:color(display-p3 .1373 .1647 .2471);fill-opacity:1;stroke:color(display-p3 .1373 .1647 .2471);stroke-opacity:1" stroke-width="3.8" stroke-linejoin="round"/><path d="M259.8 28.2a1.9 1.9 0 0 0-3.3-1.4l-6.7 6.8a2 2 0 0 0-.5 1.3c0 2.2.4 4.2 2.2 5.6 1.6 1.2 3.8 1.5 6.4 1.5.5 0 1-.2 1.3-.6l6.8-6.7a2 2 0 0 0-1.4-3.3c-2.4 0-3.5-.3-4-.7-.4-.3-.8-.8-.8-2.5ZM248.3 29.5c.4-.3.6-.8.6-1.3 0-4.8 1.3-8.2 3.4-10.3a1.9 1.9 0 0 0-2.7-2.7l-6.7 6.7c-3.1 3.1-4.6 7.6-4.6 13a2 2 0 0 0 3.3 1.4l6.7-6.8ZM268 39.2c-1.4 1.3-3.6 2.1-7.3 2.1a2 2 0 0 0-1.3.6l-6.8 6.7A2 2 0 0 0 254 52c4.1 0 7.5-1 9.9-3.3l6.7-6.7a1.9 1.9 0 0 0-2.7-2.7Z" fill="#232A3F" stroke="#232A3F" style="fill:color(display-p3 .1373 .1647 .2471);fill-opacity:1;stroke:color(display-p3 .1373 .1647 .2471);stroke-opacity:1" stroke-width="3.8" stroke-linejoin="round"/><path d="M262 44.6a2 2 0 0 0-1.3-3.3c-4 0-6.9-1.2-8.8-3.3-1.9-2.2-3-5.4-3-9.8a1.9 1.9 0 0 0-3.3-1.4l-6.7 6.8c-.4.3-.6.8-.6 1.3 0 5 1.3 9.3 4 12.3A15 15 0 0 0 254 52c.5 0 1-.2 1.3-.6l6.8-6.7Z" fill="#232A3F" stroke="#232A3F" style="fill:color(display-p3 .1373 .1647 .2471);fill-opacity:1;stroke:color(display-p3 .1373 .1647 .2471);stroke-opacity:1" stroke-width="3.8" stroke-linejoin="round"/><path d="M229.2 11.2c-.5 0-1 .2-1.3.6l-6.8 6.7a1.9 1.9 0 0 0 1.4 3.3c4.7 0 8.4 1.3 11 3.5 2.4 2.2 4 5.4 4 9.6a1.9 1.9 0 0 0 3.2 1.4l6.7-6.8c.4-.3.6-.8.6-1.3 0-5.2-1.9-9.5-5.3-12.5s-8.1-4.5-13.5-4.5Z" fill="#232A3F" stroke="#232A3F" style="fill:color(display-p3 .1373 .1647 .2471);fill-opacity:1;stroke:color(display-p3 .1373 .1647 .2471);stroke-opacity:1" stroke-width="3.8" stroke-linejoin="round"/><path d="M248 28.2a1.9 1.9 0 0 0-3.2-1.4l-6.8 6.8c-.3.3-.5.8-.5 1.3 0 3.9-1.3 7-3.5 9a1.9 1.9 0 1 0 2.7 2.8l6.7-6.8c3-2.9 4.6-7 4.6-11.7ZM208.2 23.1l6.8-6.7c3.4-3.4 8.4-5.2 14.2-5.2a1.9 1.9 0 0 1 1.3 3.3l-6.7 6.7c-.3.4-.8.6-1.3.6-5 0-9 1.5-11.6 4l-2.7-2.7Zm0 0a1.9 1.9 0 0 0 2.7 2.7l-2.7-2.7ZM236.8 29.5c.3-.3.5-.8.5-1.3 0-2.2-.3-4.3-1.9-5.8-1.5-1.4-3.7-1.7-6.2-1.7a2 2 0 0 0-1.3.6L221 28a1.9 1.9 0 0 0 1.4 3.2c2.4 0 3.2.4 3.6.7.3.3.7 1 .7 3a1.9 1.9 0 0 0 3.2 1.4l6.8-6.8Z" fill="#232A3F" stroke="#232A3F" style="fill:color(display-p3 .1373 .1647 .2471);fill-opacity:1;stroke:color(display-p3 .1373 .1647 .2471);stroke-opacity:1" stroke-width="3.8" stroke-linejoin="round"/><path d="m226.2 37.8.8.8m-.8-.8c.2-.3.6-1 .6-2.9 0-.5.2-1 .5-1.3l6.8-6.8a1.9 1.9 0 0 1 3.2 1.4c0 2-.3 4.1-1.7 5.6l-8.6 4.8m-.8-.8Zm.8.8.3.3-1.1-1.1a1.9 1.9 0 0 0 2.7 2.7l6.7-6.7-8.6 4.8ZM230.5 24a1.9 1.9 0 0 0-1.3-3.3c-2.6 0-4.8.3-6.4 1.9l-6.7 6.7a1.9 1.9 0 1 0 2.7 2.7c.3-.4 1.2-.8 3.7-.8.5 0 1-.2 1.3-.5l6.7-6.8ZM196.2 2.2a2 2 0 0 0-1.4.6l-6.7 6.7a1.9 1.9 0 0 0 1.4 3.3H204c.5 0 1-.2 1.4-.6l6.7-6.7a2 2 0 0 0-1.3-3.3h-14.7Z" fill="#232A3F" stroke="#232A3F" style="fill:color(display-p3 .1373 .1647 .2471);fill-opacity:1;stroke:color(display-p3 .1373 .1647 .2471);stroke-opacity:1" stroke-width="3.8" stroke-linejoin="round"/><path d="M229.2 31.8c-.5 0-1 .2-1.3.5l-6.8 6.8a1.9 1.9 0 0 0 1.4 3.2c2.5 0 4.8-.3 6.4-1.8l6.7-6.7a2 2 0 0 0-2.7-2.7c-.3.3-1.2.7-3.7.7ZM222.8 22.6a1.9 1.9 0 0 1 2.7 2.6l-2.7-2.6Zm0 0-6.7 6.7c-1.5 1.4-1.7 3.5-1.7 5.6a1.9 1.9 0 0 0 3.2 1.4l6.7-6.8c.4-.3.6-.8.6-1.3 0-2 .3-2.7.6-3l-2.7-2.6Z" fill="#232A3F" stroke="#232A3F" style="fill:color(display-p3 .1373 .1647 .2471);fill-opacity:1;stroke:color(display-p3 .1373 .1647 .2471);stroke-opacity:1" stroke-width="3.8" stroke-linejoin="round"/><path d="M224.9 28.2a1.9 1.9 0 0 0-3.3-1.4l-6.7 6.8a2 2 0 0 0-.5 1.3c0 2.2.3 4.3 1.8 5.8 1.6 1.3 3.8 1.6 6.3 1.6.5 0 1-.2 1.3-.5l6.7-6.8a2 2 0 0 0-1.3-3.2c-2.4 0-3.3-.4-3.7-.7-.3-.3-.6-.9-.6-3ZM243.4 37.3a2 2 0 0 0-2.7 0l2.7 2.6c.8-.7.8-1.9 0-2.6Zm0 2.7-2.7-2.7a16 16 0 0 1-11.5 4 2 2 0 0 0-1.3.6l-6.8 6.7a1.9 1.9 0 0 0 1.4 3.3c5.8 0 10.8-1.8 14.2-5.2l6.7-6.7ZM213.6 29.5c.4-.3.6-.8.6-1.3 0-4 1.3-7 3.5-9.1a1.9 1.9 0 0 0-2.7-2.7l-6.8 6.7c-3 3-4.5 7-4.5 11.8a1.9 1.9 0 0 0 3.2 1.4l6.7-6.8Z" fill="#232A3F" stroke="#232A3F" style="fill:color(display-p3 .1373 .1647 .2471);fill-opacity:1;stroke:color(display-p3 .1373 .1647 .2471);stroke-opacity:1" stroke-width="3.8" stroke-linejoin="round"/><path d="M212.8 4.1a1.9 1.9 0 0 0-3.3-1.3l-6.7 6.7c-.4.4-.6.9-.6 1.4v38.5a2 2 0 0 0 3.3 1.3l6.7-6.7c.4-.3.6-.8.6-1.3V4Z" fill="#232A3F" stroke="#232A3F" style="fill:color(display-p3 .1373 .1647 .2471);fill-opacity:1;stroke:color(display-p3 .1373 .1647 .2471);stroke-opacity:1" stroke-width="3.8" stroke-linejoin="round"/><path d="M230.5 44.6a1.9 1.9 0 0 0-1.3-3.3c-4.7 0-8.4-1.3-11-3.5-2.5-2.2-4-5.4-4-9.6a1.9 1.9 0 0 0-3.2-1.4l-6.8 6.8a2 2 0 0 0-.5 1.3c0 5.2 1.9 9.5 5.3 12.5s8 4.5 13.5 4.5c.5 0 1-.2 1.3-.6l6.7-6.7ZM190.8 21.5l.4-.6 6.8-16a1.9 1.9 0 0 0-3.2-2.1l-6.7 6.7-.4.6-6.7 16a1.9 1.9 0 0 0 3 2.1l6.8-6.7ZM201.8 21.6a1.9 1.9 0 0 0-1.4-3.2h-.7c-.5 0-1 .2-1.3.6l-6.8 6.7a1.9 1.9 0 0 0 1.4 3.2h.7c.5 0 1-.2 1.4-.5l6.7-6.8Z" fill="#232A3F" stroke="#232A3F" style="fill:color(display-p3 .1373 .1647 .2471);fill-opacity:1;stroke:color(display-p3 .1373 .1647 .2471);stroke-opacity:1" stroke-width="3.8" stroke-linejoin="round"/><path d="M201.4 28c.3-.2.5-.7.5-1.1l.4-6.5a1.9 1.9 0 0 0-3.2-1.4l-6.7 6.7a2 2 0 0 0-.6 1.2l-.4 6.5a1.9 1.9 0 0 0 3.3 1.4l6.7-6.7Z" fill="#232A3F" stroke="#232A3F" style="fill:color(display-p3 .1373 .1647 .2471);fill-opacity:1;stroke:color(display-p3 .1373 .1647 .2471);stroke-opacity:1" stroke-width="3.8" stroke-linejoin="round"/><path d="M201.5 21a1.9 1.9 0 0 0-3.1-2l-6.8 6.7-.4.7L189 33a1.9 1.9 0 0 0 3.1 2L199 28l.4-.7 2.2-6.5ZM176 3.4a1.9 1.9 0 0 0-3.1-.6l-6.7 6.7a2 2 0 0 0-.4 2.2l7 16a1.9 1.9 0 0 0 3.1.5l6.8-6.7a2 2 0 0 0 .3-2.1l-7-16Z" fill="#232A3F" stroke="#232A3F" style="fill:color(display-p3 .1373 .1647 .2471);fill-opacity:1;stroke:color(display-p3 .1373 .1647 .2471);stroke-opacity:1" stroke-width="3.8" stroke-linejoin="round"/><path d="M201.4 44c.3-.3.6-.8.6-1.3v-16a1.9 1.9 0 0 0-3.3-1.3L192 32a2 2 0 0 0-.6 1.4v15.9a1.9 1.9 0 0 0 3.3 1.3l6.7-6.7Z" fill="#232A3F" stroke="#232A3F" style="fill:color(display-p3 .1373 .1647 .2471);fill-opacity:1;stroke:color(display-p3 .1373 .1647 .2471);stroke-opacity:1" stroke-width="3.8" stroke-linejoin="round"/><path d="M212.2 44a1.9 1.9 0 0 0-1.3-3.2H200a2 2 0 0 0-1.3.5l-6.7 6.8a1.9 1.9 0 0 0 1.3 3.2h10.8c.5 0 1-.2 1.4-.6l6.7-6.7ZM159.6 2.2c-.5 0-1 .2-1.4.6l-6.7 6.7a1.9 1.9 0 0 0 1.3 3.3h14.7c.5 0 1-.2 1.3-.6l6.8-6.7a1.9 1.9 0 0 0-1.4-3.3h-14.6ZM187.2 31.4l.4-.7 3.7-10a1.9 1.9 0 0 0-3.2-2l-6.7 6.8-.5.7-3.6 10a2 2 0 0 0 3.2 2l6.7-6.8ZM199.3 27.5a1.9 1.9 0 0 0-3.1-2.1l-6.8 6.7a2 2 0 0 0-.4.6l-5.7 13.7a2 2 0 0 0 3 2l6.8-6.7.4-.6 5.8-13.6Z" fill="#232A3F" stroke="#232A3F" style="fill:color(display-p3 .1373 .1647 .2471);fill-opacity:1;stroke:color(display-p3 .1373 .1647 .2471);stroke-opacity:1" stroke-width="3.8" stroke-linejoin="round"/><path d="M183 19.5a1.9 1.9 0 0 0-3-.7l-6.8 6.7c-.5.5-.7 1.3-.4 2l3.8 10a1.9 1.9 0 0 0 3.1.7l6.7-6.8c.6-.5.7-1.3.5-2l-3.8-10Z" fill="#232A3F" stroke="#232A3F" style="fill:color(display-p3 .1373 .1647 .2471);fill-opacity:1;stroke:color(display-p3 .1373 .1647 .2471);stroke-opacity:1" stroke-width="3.8" stroke-linejoin="round"/><path d="M185.1 28.2c-.5 0-1 .2-1.3.5l-6.8 6.8a2 2 0 0 0 1.4 3.2h.7c.5 0 1-.2 1.4-.5l6.7-6.8a2 2 0 0 0-1.4-3.2h-.7ZM172 21.6a1.9 1.9 0 0 0-1.3-3.2h-.7a2 2 0 0 0-1.4.6l-6.7 6.7a1.9 1.9 0 0 0 1.3 3.2h.8c.5 0 1-.2 1.3-.5l6.8-6.8Z" fill="#232A3F" stroke="#232A3F" style="fill:color(display-p3 .1373 .1647 .2471);fill-opacity:1;stroke:color(display-p3 .1373 .1647 .2471);stroke-opacity:1" stroke-width="3.8" stroke-linejoin="round"/><path d="M174.3 28c.5-.4.6-1.2.4-1.9l-2.2-6.4a1.9 1.9 0 0 0-3.1-.7l-6.8 6.7a2 2 0 0 0-.4 2l2.2 6.4a1.9 1.9 0 0 0 3.1.7l6.8-6.7Z" fill="#232A3F" stroke="#232A3F" style="fill:color(display-p3 .1373 .1647 .2471);fill-opacity:1;stroke:color(display-p3 .1373 .1647 .2471);stroke-opacity:1" stroke-width="3.8" stroke-linejoin="round"/><path d="M171.9 20.2a2 2 0 0 0-3.3-1.2l-6.7 6.7c-.4.4-.6 1-.6 1.5l.4 6.4a2 2 0 0 0 3.3 1.2l6.7-6.7c.4-.4.6-1 .6-1.5l-.4-6.4ZM193.1 41.7a2 2 0 0 0-1.3-3.2h-13.1c-.5 0-1 .2-1.4.5l-6.7 6.8a1.9 1.9 0 0 0 1.3 3.2H185c.5 0 1-.2 1.4-.6l6.7-6.7Z" fill="#232A3F" stroke="#232A3F" style="fill:color(display-p3 .1373 .1647 .2471);fill-opacity:1;stroke:color(display-p3 .1373 .1647 .2471);stroke-opacity:1" stroke-width="3.8" stroke-linejoin="round"/><path d="M180 41.7c.6-.5.7-1.4.4-2L174.7 26a2 2 0 0 0-3.1-.6l-6.8 6.7a2 2 0 0 0-.4 2.1l5.8 13.6a1.9 1.9 0 0 0 3 .6l6.8-6.7ZM161 44c.3-.3.5-.8.5-1.3V4a1.9 1.9 0 0 0-3.3-1.3l-6.7 6.7a2 2 0 0 0-.6 1.4v38.5a1.9 1.9 0 0 0 3.3 1.3l6.7-6.7Z" fill="#232A3F" stroke="#232A3F" style="fill:color(display-p3 .1373 .1647 .2471);fill-opacity:1;stroke:color(display-p3 .1373 .1647 .2471);stroke-opacity:1" stroke-width="3.8" stroke-linejoin="round"/><path d="M172.3 26.7a1.9 1.9 0 0 0-3.3-1.3l-6.7 6.7a2 2 0 0 0-.6 1.4v15.9a1.9 1.9 0 0 0 3.3 1.3l6.7-6.7c.4-.3.6-.8.6-1.3v-16Z" fill="#232A3F" stroke="#232A3F" style="fill:color(display-p3 .1373 .1647 .2471);fill-opacity:1;stroke:color(display-p3 .1373 .1647 .2471);stroke-opacity:1" stroke-width="3.8" stroke-linejoin="round"/><path d="M171.7 44a1.9 1.9 0 0 0-1.3-3.2h-10.8c-.5 0-1 .2-1.4.5l-6.7 6.8a1.9 1.9 0 0 0 1.3 3.2h10.8c.6 0 1-.2 1.4-.6l6.7-6.7ZM134.4 11.2c-.6 0-1 .2-1.4.6l-6.7 6.7a2 2 0 0 0 1.3 3.3c4.7 0 8.4 1.3 11 3.5 2.5 2.2 4 5.4 4 9.6a1.9 1.9 0 0 0 3.3 1.4l6.7-6.8c.4-.3.6-.8.6-1.3 0-5.2-2-9.5-5.4-12.5-3.4-3-8-4.5-13.4-4.5Z" fill="#232A3F" stroke="#232A3F" style="fill:color(display-p3 .1373 .1647 .2471);fill-opacity:1;stroke:color(display-p3 .1373 .1647 .2471);stroke-opacity:1" stroke-width="3.8" stroke-linejoin="round"/><path d="M153.2 28.2a1.9 1.9 0 0 0-3.3-1.4l-6.7 6.8a2 2 0 0 0-.6 1.3c0 3.9-1.3 7-3.4 9a1.9 1.9 0 0 0 2.6 2.8l6.8-6.8c3-2.9 4.6-7 4.6-11.7ZM113.4 23.1l6.7-6.7c3.4-3.4 8.5-5.2 14.3-5.2a2 2 0 0 1 1.3 3.3l-6.7 6.7c-.4.4-.9.6-1.4.6-5 0-9 1.5-11.5 4l-2.7-2.7Zm0 0a2 2 0 0 0 2.7 2.7l-2.7-2.7ZM142 29.5c.3-.3.5-.8.5-1.3 0-2.2-.3-4.3-2-5.8-1.4-1.4-3.7-1.7-6.1-1.7a2 2 0 0 0-1.4.6l-6.7 6.7a2 2 0 0 0 1.3 3.2c2.4 0 3.3.4 3.7.7.3.3.6 1 .6 3a1.9 1.9 0 0 0 3.3 1.4l6.7-6.8Z" fill="#232A3F" stroke="#232A3F" style="fill:color(display-p3 .1373 .1647 .2471);fill-opacity:1;stroke:color(display-p3 .1373 .1647 .2471);stroke-opacity:1" stroke-width="3.8" stroke-linejoin="round"/><path d="m131.3 37.8.8.8m-.8-.8c.3-.3.6-1 .6-2.9 0-.5.2-1 .6-1.3l6.7-6.8a2 2 0 0 1 3.3 1.4c0 2-.3 4.1-1.8 5.6l-8.5 4.8m-.9-.8Zm.8.8h.1l.2.3-1-1.1a1.9 1.9 0 0 0 2.6 2.7l6.7-6.7-8.5 4.8ZM135.7 24a1.9 1.9 0 0 0-1.3-3.3c-2.6 0-4.9.3-6.4 1.9l-6.8 6.7A1.9 1.9 0 0 0 124 32c.4-.4 1.2-.8 3.7-.8.5 0 1-.2 1.4-.5l6.7-6.8Z" fill="#232A3F" stroke="#232A3F" style="fill:color(display-p3 .1373 .1647 .2471);fill-opacity:1;stroke:color(display-p3 .1373 .1647 .2471);stroke-opacity:1" stroke-width="3.8" stroke-linejoin="round"/><path d="M134.4 31.8c-.6 0-1 .2-1.4.5l-6.7 6.8a2 2 0 0 0 1.3 3.2c2.6 0 4.9-.3 6.4-1.8l6.7-6.7A2 2 0 0 0 138 31c-.3.3-1.1.7-3.6.7ZM128 22.6a1.9 1.9 0 0 1 2.7 2.6l-2.7-2.6Zm0 0-6.8 6.7c-1.4 1.4-1.7 3.5-1.7 5.6a2 2 0 0 0 3.3 1.4l6.7-6.8c.3-.3.5-.8.5-1.3 0-2 .4-2.7.7-3l-2.7-2.6Z" fill="#232A3F" stroke="#232A3F" style="fill:color(display-p3 .1373 .1647 .2471);fill-opacity:1;stroke:color(display-p3 .1373 .1647 .2471);stroke-opacity:1" stroke-width="3.8" stroke-linejoin="round"/><path d="M130 28.2a1.9 1.9 0 0 0-3.2-1.4l-6.7 6.8c-.4.3-.6.8-.6 1.3 0 2.2.3 4.3 1.9 5.8 1.5 1.3 3.7 1.6 6.2 1.6.5 0 1-.2 1.4-.5l6.7-6.8a1.9 1.9 0 0 0-1.3-3.2c-2.5 0-3.3-.4-3.7-.7-.3-.3-.7-.9-.7-3ZM148.6 37.3a2 2 0 0 0-2.7 0l2.7 2.6c.7-.7.7-1.9 0-2.6Zm0 2.7-2.7-2.7a16 16 0 0 1-11.5 4 2 2 0 0 0-1.4.6l-6.7 6.7a2 2 0 0 0 1.3 3.3c5.8 0 10.8-1.8 14.2-5.2l6.8-6.7ZM118.8 29.5c.4-.3.6-.8.6-1.3 0-4 1.2-7 3.4-9.1a1.9 1.9 0 1 0-2.7-2.7l-6.7 6.7c-3 3-4.6 7-4.6 11.8a1.9 1.9 0 0 0 3.3 1.4l6.7-6.8Z" fill="#232A3F" stroke="#232A3F" style="fill:color(display-p3 .1373 .1647 .2471);fill-opacity:1;stroke:color(display-p3 .1373 .1647 .2471);stroke-opacity:1" stroke-width="3.8" stroke-linejoin="round"/><path d="M108.3 11.2c-.5 0-1 .2-1.4.6l-6.7 6.7a1.9 1.9 0 0 0 1.3 3.3c2.8 0 4.4.8 5.4 2 1 1.4 1.6 3.4 1.6 6a2 2 0 0 0 3.3 1.4l6.7-6.7c.4-.4.6-.9.6-1.4 0-3.1-.7-6.1-2.5-8.4-1.9-2.3-4.7-3.5-8.3-3.5Z" fill="#232A3F" stroke="#232A3F" style="fill:color(display-p3 .1373 .1647 .2471);fill-opacity:1;stroke:color(display-p3 .1373 .1647 .2471);stroke-opacity:1" stroke-width="3.8" stroke-linejoin="round"/><path d="M119 23.1a1.9 1.9 0 0 0-3.2-1.3l-6.7 6.7a2 2 0 0 0-.6 1.4v5.7a1.9 1.9 0 0 0 3.3 1.3l6.7-6.7c.4-.3.6-.8.6-1.3V23ZM96 23.7c1.2-1.2 3-2 5.5-2 .5 0 1-.1 1.4-.5l6.7-6.7a1.9 1.9 0 0 0-1.3-3.3c-3.5 0-6.3 1-8.2 3L93.3 21l2.7 2.7Zm0 0L93.3 21m2.7 2.7a1.9 1.9 0 0 1-2.7-2.7m0 0Zm1.4 1.4" fill="#232A3F" stroke="#232A3F" style="fill:color(display-p3 .1373 .1647 .2471);fill-opacity:1;stroke:color(display-p3 .1373 .1647 .2471);stroke-opacity:1" stroke-width="3.8" stroke-linejoin="round"/><path d="M135.7 44.6a1.9 1.9 0 0 0-1.3-3.3c-4.7 0-8.5-1.3-11-3.5s-4-5.4-4-9.6a1.9 1.9 0 0 0-3.3-1.4l-6.7 6.8c-.4.3-.6.8-.6 1.3 0 5.2 2 9.5 5.3 12.5 3.4 3 8.1 4.5 13.5 4.5.5 0 1-.2 1.4-.6l6.7-6.7Z" fill="#232A3F" stroke="#232A3F" style="fill:color(display-p3 .1373 .1647 .2471);fill-opacity:1;stroke:color(display-p3 .1373 .1647 .2471);stroke-opacity:1" stroke-width="3.8" stroke-linejoin="round"/><path d="M118.5 30.2a2 2 0 0 0-1.3-3.2h-10.8c-.5 0-1 .2-1.4.5l-6.7 6.8a1.9 1.9 0 0 0 1.3 3.2h10.8c.5 0 1-.2 1.4-.6l6.7-6.7ZM100 22.6c.3-.3.5-.6.6-1 .3-2 1-3.5 2.1-4.6a1.9 1.9 0 0 0-2.6-2.7L93.3 21a12.1 12.1 0 0 0-3.2 6.7 1.9 1.9 0 0 0 3.2 1.7l6.8-6.8Z" fill="#232A3F" stroke="#232A3F" style="fill:color(display-p3 .1373 .1647 .2471);fill-opacity:1;stroke:color(display-p3 .1373 .1647 .2471);stroke-opacity:1" stroke-width="3.8" stroke-linejoin="round"/><path d="M107.7 26.8c.4-.3.6-.8.6-1.3 0-1.4-.3-3-1.5-4-1.1-1-2.7-1.2-4.2-1.2a2 2 0 0 0-1.3.6l-6.8 6.7a1.9 1.9 0 0 0 1.4 3.2c1.3 0 1.6.3 1.7.3v.1l.1 1a1.9 1.9 0 0 0 3.3 1.4l6.7-6.8Z" fill="#232A3F" stroke="#232A3F" style="fill:color(display-p3 .1373 .1647 .2471);fill-opacity:1;stroke:color(display-p3 .1373 .1647 .2471);stroke-opacity:1" stroke-width="3.8" stroke-linejoin="round"/><path d="M100 13.7a1.9 1.9 0 0 0-3.2-1.4l-6.7 6.8c-.4.3-.6.8-.6 1.3V28a1.9 1.9 0 0 0 3.3 1.4l6.7-6.8c.3-.3.5-.8.5-1.3v-7.6Z" fill="#232A3F" stroke="#232A3F" style="fill:color(display-p3 .1373 .1647 .2471);fill-opacity:1;stroke:color(display-p3 .1373 .1647 .2471);stroke-opacity:1" stroke-width="3.8" stroke-linejoin="round"/><path d="M88 11.8c-.5 0-1 .2-1.3.5l-6.8 6.8a1.9 1.9 0 0 0 1.4 3.2h10.1c.5 0 1-.2 1.4-.5l6.7-6.8a2 2 0 0 0-1.4-3.2h-10ZM107.7 30.2c.4-.3.6-.8.6-1.3v-3.4A1.9 1.9 0 0 0 105 24L98.3 31c-.4.3-.6.8-.6 1.3v3.4a1.9 1.9 0 0 0 3.3 1.3l6.7-6.7ZM104 23.5a1.9 1.9 0 0 0-1.4-3.2c-1.6 0-3.3.2-4.4 1.4l-6.8 6.7a1.9 1.9 0 0 0 2.7 2.7l.4-.1a6 6 0 0 1 1.4-.2c.5 0 1-.2 1.3-.5l6.8-6.8Z" fill="#232A3F" stroke="#232A3F" style="fill:color(display-p3 .1373 .1647 .2471);fill-opacity:1;stroke:color(display-p3 .1373 .1647 .2471);stroke-opacity:1" stroke-width="3.8" stroke-linejoin="round"/><path d="M98.1 19.4c-.5 0-1 .2-1.3.5l-6.7 6.8a1.9 1.9 0 0 0 1.3 3.2h.6c.5 0 1-.2 1.3-.5l6.8-6.8a2 2 0 0 0-1.4-3.2h-.6Z" fill="#232A3F" stroke="#232A3F" style="fill:color(display-p3 .1373 .1647 .2471);fill-opacity:1;stroke:color(display-p3 .1373 .1647 .2471);stroke-opacity:1" stroke-width="3.8" stroke-linejoin="round"/><path d="M98.2 21.7a1.9 1.9 0 0 1 2.7 2.7l-.2 1c0 .5-.2 1-.5 1.3l-6.8 6.7a1.9 1.9 0 0 1-3.2-1.3c0-1.2.2-2.6 1.2-3.7l6.8-6.7Zm0 0-6.8 6.7 6.8-6.7Zm2.7 2.7ZM78.3 11.8c-.5 0-1 .2-1.4.5l-6.7 6.8a1.9 1.9 0 0 0 1.3 3.2H80c.5 0 1-.2 1.3-.5L88 15a1.9 1.9 0 0 0-1.3-3.2h-8.3Z" fill="#232A3F" stroke="#232A3F" style="fill:color(display-p3 .1373 .1647 .2471);fill-opacity:1;stroke:color(display-p3 .1373 .1647 .2471);stroke-opacity:1" stroke-width="3.8" stroke-linejoin="round"/><path d="M88.5 13.7a1.9 1.9 0 0 0-3.3-1.4l-6.7 6.8c-.3.3-.5.8-.5 1.3v8.9a1.9 1.9 0 0 0 3.2 1.3L88 24c.4-.4.6-.9.6-1.4v-8.8ZM80.2 8.7a1.9 1.9 0 0 0-3.3-1.4l-6.7 6.8c-.4.3-.6.8-.6 1.3v5a1.9 1.9 0 0 0 3.3 1.4l6.7-6.8c.4-.3.6-.8.6-1.3v-5ZM100.7 25.4a1.9 1.9 0 0 0-3.2-1.4l-6.7 6.7c-.4.4-.6.9-.6 1.4v17.3a1.9 1.9 0 0 0 3.2 1.3l6.8-6.7c.3-.3.5-.8.5-1.3V25.4Z" fill="#232A3F" stroke="#232A3F" style="fill:color(display-p3 .1373 .1647 .2471);fill-opacity:1;stroke:color(display-p3 .1373 .1647 .2471);stroke-opacity:1" stroke-width="3.8" stroke-linejoin="round"/><path d="M67.5 6.8c-.6 0-1 .2-1.4.5l-6.7 6.8a1.9 1.9 0 0 0 1.3 3.2h10.8c.5 0 1-.2 1.4-.5l6.7-6.8a1.9 1.9 0 0 0-1.3-3.2H67.5ZM88 23.9a1.9 1.9 0 0 0-1.4-3.3h-8.3c-.5 0-1 .2-1.4.6l-6.7 6.7a1.9 1.9 0 0 0 1.3 3.3H80c.5 0 1-.2 1.3-.6L88 24Z" fill="#232A3F" stroke="#232A3F" style="fill:color(display-p3 .1373 .1647 .2471);fill-opacity:1;stroke:color(display-p3 .1373 .1647 .2471);stroke-opacity:1" stroke-width="3.8" stroke-linejoin="round"/><path d="M89.4 44c.3-.3.5-.8.5-1.3v-29a1.9 1.9 0 0 0-3.2-1.4l-6.8 6.8c-.3.3-.5.8-.5 1.3v29a1.9 1.9 0 0 0 3.2 1.3l6.8-6.7ZM68.8 15c.4-.3.6-.8.6-1.3v-5A1.9 1.9 0 0 0 66 7.3l-6.7 6.8c-.4.3-.6.8-.6 1.3v5a1.9 1.9 0 0 0 3.3 1.4l6.7-6.8Z" fill="#232A3F" stroke="#232A3F" style="fill:color(display-p3 .1373 .1647 .2471);fill-opacity:1;stroke:color(display-p3 .1373 .1647 .2471);stroke-opacity:1" stroke-width="3.8" stroke-linejoin="round"/><path d="M64.5 4.1a1.9 1.9 0 0 0-3.2-1.3l-6.8 6.7c-.3.4-.5.9-.5 1.4v6.9a1.9 1.9 0 0 0 3.2 1.3l6.8-6.7c.3-.4.5-.8.5-1.4V4.1Z" fill="#232A3F" stroke="#232A3F" style="fill:color(display-p3 .1373 .1647 .2471);fill-opacity:1;stroke:color(display-p3 .1373 .1647 .2471);stroke-opacity:1" stroke-width="3.8" stroke-linejoin="round"/><path d="M51.8 2.2c-.5 0-1 .2-1.3.6l-6.8 6.7a1.9 1.9 0 0 0 1.4 3.3h10.8c.5 0 1-.2 1.3-.6L64 5.5a1.9 1.9 0 0 0-1.4-3.3H51.8ZM80.2 22.5a1.9 1.9 0 0 0-3.3-1.3l-6.7 6.7c-.4.4-.6.9-.6 1.4v7.5a1.9 1.9 0 0 0 3.3 1.4l6.7-6.8c.4-.3.6-.8.6-1.3v-7.6ZM63.2 11.8c-.5 0-1 .2-1.3.5L55 19.1a1.9 1.9 0 0 0 1.4 3.2h4.2c.5 0 1-.2 1.4-.5l6.7-6.8a1.9 1.9 0 0 0-1.3-3.2h-4.3ZM81.4 31c-.5 0-1 .2-1.3.6l-6.8 6.7a1.9 1.9 0 0 0 1.4 3.3h5.2c.5 0 1-.2 1.3-.6l6.7-6.7a1.9 1.9 0 0 0-1.3-3.3h-5.2ZM100.2 44a2 2 0 0 0-1.4-3.2H88c-.5 0-1 .2-1.3.5l-6.8 6.8a1.9 1.9 0 0 0 1.4 3.2H92c.5 0 1-.2 1.3-.6l6.8-6.7Z" fill="#232A3F" stroke="#232A3F" style="fill:color(display-p3 .1373 .1647 .2471);fill-opacity:1;stroke:color(display-p3 .1373 .1647 .2471);stroke-opacity:1" stroke-width="3.8" stroke-linejoin="round"/><path d="M88.5 33a1.9 1.9 0 0 0-3.3-1.4l-6.7 6.7c-.3.4-.5.9-.5 1.4v9.7a1.9 1.9 0 0 0 3.2 1.3L88 44c.4-.3.6-.8.6-1.3v-9.8Z" fill="#232A3F" stroke="#232A3F" style="fill:color(display-p3 .1373 .1647 .2471);fill-opacity:1;stroke:color(display-p3 .1373 .1647 .2471);stroke-opacity:1" stroke-width="3.8" stroke-linejoin="round"/><path d="M80.2 30a1.9 1.9 0 0 0-3.3-1.3l-6.7 6.8c-.4.3-.6.8-.6 1.3 0 1.2.2 2.7 1.3 3.7 1 1 2.6 1 3.8 1 .5 0 1-.1 1.3-.5l6.8-6.7a1.9 1.9 0 0 0-1.4-3.3 5.6 5.6 0 0 1-1.2 0v-1Zm0 1ZM64 12.4A1.9 1.9 0 0 0 62.6 9H51.8c-.5 0-1 .2-1.3.6l-6.8 6.7a1.9 1.9 0 0 0 1.4 3.3h10.8c.5 0 1-.2 1.3-.6l6.8-6.7Z" fill="#232A3F" stroke="#232A3F" style="fill:color(display-p3 .1373 .1647 .2471);fill-opacity:1;stroke:color(display-p3 .1373 .1647 .2471);stroke-opacity:1" stroke-width="3.8" stroke-linejoin="round"/><path d="M64.5 23.9c.4-.4.6-.9.6-1.4v-8.8a1.9 1.9 0 0 0-3.2-1.4L55 19.1c-.3.3-.5.8-.5 1.3v8.9a1.9 1.9 0 0 0 3.2 1.3l6.7-6.7ZM53.2 12.4c.3-.4.5-.8.5-1.4V4.1a1.9 1.9 0 0 0-3.2-1.3l-6.8 6.7c-.3.4-.5.9-.5 1.4v6.9a1.9 1.9 0 0 0 3.2 1.3l6.8-6.7Z" fill="#232A3F" stroke="#232A3F" style="fill:color(display-p3 .1373 .1647 .2471);fill-opacity:1;stroke:color(display-p3 .1373 .1647 .2471);stroke-opacity:1" stroke-width="3.8" stroke-linejoin="round"/><path d="M51.8 11.8c-.5 0-1 .2-1.3.5l-6.8 6.8a1.9 1.9 0 0 0 1.4 3.2h10.8c.5 0 1-.2 1.3-.5L64 15a1.9 1.9 0 0 0-1.4-3.2H51.8ZM68.8 23.9a1.9 1.9 0 0 0-1.3-3.3h-4.3c-.5 0-1 .2-1.3.6L55 27.9a1.9 1.9 0 0 0 1.4 3.3h4.2c.5 0 1-.2 1.4-.6l6.7-6.7Z" fill="#232A3F" stroke="#232A3F" style="fill:color(display-p3 .1373 .1647 .2471);fill-opacity:1;stroke:color(display-p3 .1373 .1647 .2471);stroke-opacity:1" stroke-width="3.8" stroke-linejoin="round"/><path d="M68.8 33c.4-.4.6-.9.6-1.4v-9a1.9 1.9 0 0 0-3.3-1.4l-6.7 6.7c-.4.4-.6.9-.6 1.4v9a1.9 1.9 0 0 0 3.3 1.4l6.7-6.7ZM88 44a1.9 1.9 0 0 0-1.4-3.2H79c-.5 0-1 .2-1.3.5l-6.8 6.8a1.9 1.9 0 0 0 1.4 3.2h7.6c.5 0 1-.2 1.3-.6L88 44ZM38.7 2.2c-.5 0-1 .2-1.4.6l-6.7 6.7a1.9 1.9 0 0 0 1.4 3.3h10.8c.5 0 1-.2 1.3-.6l6.7-6.7a1.9 1.9 0 0 0-1.3-3.3H38.7Z" fill="#232A3F" stroke="#232A3F" style="fill:color(display-p3 .1373 .1647 .2471);fill-opacity:1;stroke:color(display-p3 .1373 .1647 .2471);stroke-opacity:1" stroke-width="3.8" stroke-linejoin="round"/><path d="M80.4 44a1.9 1.9 0 0 0-1.4-3.2c-3.3 0-5.7-.9-7.2-2.2-1.5-1.4-2.4-3.6-2.4-7a1.9 1.9 0 0 0-3.3-1.3L59.4 37c-.4.4-.6.9-.6 1.4 0 4 1.2 7.4 3.7 9.7a14 14 0 0 0 9.8 3.2c.5 0 1-.2 1.3-.6l6.8-6.7Z" fill="#232A3F" stroke="#232A3F" style="fill:color(display-p3 .1373 .1647 .2471);fill-opacity:1;stroke:color(display-p3 .1373 .1647 .2471);stroke-opacity:1" stroke-width="3.8" stroke-linejoin="round"/><path d="M64.5 13.7a1.9 1.9 0 0 0-3.2-1.4l-6.8 6.8c-.3.3-.5.8-.5 1.3v29a1.9 1.9 0 0 0 3.2 1.3L64 44c.3-.3.5-.8.5-1.3v-29ZM40 20.4c.4-.4.6-.9.6-1.4V4.1a1.9 1.9 0 0 0-3.3-1.3l-6.7 6.7c-.3.4-.6.9-.6 1.4v14.9a1.9 1.9 0 0 0 3.3 1.3l6.7-6.7ZM51.4 4.1a1.9 1.9 0 0 0-3.3-1.3l-6.7 6.7c-.3.4-.5.9-.5 1.4v38.5a1.9 1.9 0 0 0 3.2 1.3l6.7-6.7c.4-.3.6-.8.6-1.3V4Z" fill="#232A3F" stroke="#232A3F" style="fill:color(display-p3 .1373 .1647 .2471);fill-opacity:1;stroke:color(display-p3 .1373 .1647 .2471);stroke-opacity:1" stroke-width="3.8" stroke-linejoin="round"/><path d="M53.2 44c.3-.3.5-.8.5-1.3v-29a1.9 1.9 0 0 0-3.2-1.4l-6.8 6.8c-.3.3-.5.8-.5 1.3v29a1.9 1.9 0 0 0 3.2 1.3l6.8-6.7ZM23.7 3a1.9 1.9 0 0 0-3-.2l-6.6 6.7c-.7.7-.8 1.8-.2 2.5l10.7 14.4a1.9 1.9 0 0 0 2.8.3l6.8-6.8c.6-.6.7-1.7.2-2.5L23.7 3ZM40.6 28.8c.3-.4.5-1 .5-1.5l-.5-8.4a1.9 1.9 0 0 0-3.3-1.2l-6.7 6.7c-.4.4-.6 1-.5 1.5l.5 8.4a1.9 1.9 0 0 0 3.2 1.2l6.8-6.7Z" fill="#232A3F" stroke="#232A3F" style="fill:color(display-p3 .1373 .1647 .2471);fill-opacity:1;stroke:color(display-p3 .1373 .1647 .2471);stroke-opacity:1" stroke-width="3.8" stroke-linejoin="round"/><path d="M64 44a1.9 1.9 0 0 0-1.4-3.2H51.8c-.5 0-1 .2-1.3.5l-6.8 6.8a1.9 1.9 0 0 0 1.4 3.2h10.8c.5 0 1-.2 1.3-.6L64 44ZM34.4 17.6a1.9 1.9 0 0 0-3-.4L24.8 24c-.6.6-.7 1.6-.2 2.3l5.6 8.9a1.9 1.9 0 0 0 3 .3l6.7-6.7c.6-.7.7-1.6.3-2.4l-5.7-8.8ZM10.6 2.2c-.5 0-1 .2-1.3.6L2.6 9.5a1.9 1.9 0 0 0 1.3 3.3h11.5c.5 0 1-.2 1.3-.6l6.8-6.7A1.9 1.9 0 0 0 22 2.2H10.6Z" fill="#232A3F" stroke="#232A3F" style="fill:color(display-p3 .1373 .1647 .2471);fill-opacity:1;stroke:color(display-p3 .1373 .1647 .2471);stroke-opacity:1" stroke-width="3.8" stroke-linejoin="round"/><path d="M38.5 25.5c-.5 0-1 .2-1.4.6l-6.7 6.7a1.9 1.9 0 0 0 1.3 3.3h.8c.5 0 1-.2 1.3-.6l6.8-6.7a1.9 1.9 0 0 0-1.4-3.3h-.7ZM23 21.6a1.9 1.9 0 0 0-1.3-3.3H21c-.5 0-1 .2-1.4.6L13 25.6a1.9 1.9 0 0 0 1.3 3.3h.8c.5 0 1-.2 1.3-.6l6.8-6.7ZM50.8 44a1.9 1.9 0 0 0-1.3-3.2H38c-.5 0-1 .2-1.3.5l-6.8 6.8a1.9 1.9 0 0 0 1.4 3.2h11.5c.5 0 1-.2 1.3-.6l6.7-6.7Z" fill="#232A3F" stroke="#232A3F" style="fill:color(display-p3 .1373 .1647 .2471);fill-opacity:1;stroke:color(display-p3 .1373 .1647 .2471);stroke-opacity:1" stroke-width="3.8" stroke-linejoin="round"/><path d="M28 29.2c.6-.7.7-1.6.2-2.4l-4.9-7.6a1.9 1.9 0 0 0-3-.3l-6.7 6.7c-.6.7-.7 1.7-.2 2.4l4.9 7.6a1.9 1.9 0 0 0 3 .3l6.7-6.7Z" fill="#232A3F" stroke="#232A3F" style="fill:color(display-p3 .1373 .1647 .2471);fill-opacity:1;stroke:color(display-p3 .1373 .1647 .2471);stroke-opacity:1" stroke-width="3.8" stroke-linejoin="round"/><path d="M22.9 20.1a1.9 1.9 0 0 0-3.3-1.2L13 25.6c-.4.4-.6 1-.6 1.5l.5 7.4a1.9 1.9 0 0 0 3.3 1.2l6.7-6.8c.4-.3.6-.9.5-1.4L23 20Z" fill="#232A3F" stroke="#232A3F" style="fill:color(display-p3 .1373 .1647 .2471);fill-opacity:1;stroke:color(display-p3 .1373 .1647 .2471);stroke-opacity:1" stroke-width="3.8" stroke-linejoin="round"/><path d="M39.3 44c.7-.7.8-1.7.2-2.5L28.1 26.7a1.9 1.9 0 0 0-2.8-.2l-6.8 6.7c-.6.7-.7 1.8-.1 2.5l11.4 14.9a1.9 1.9 0 0 0 2.8.1l6.7-6.7ZM12 44c.3-.3.5-.8.5-1.3V4a1.9 1.9 0 0 0-3.2-1.3L2.6 9.5c-.4.4-.6.9-.6 1.4v38.5a1.9 1.9 0 0 0 3.2 1.3L12 44Z" fill="#232A3F" stroke="#232A3F" style="fill:color(display-p3 .1373 .1647 .2471);fill-opacity:1;stroke:color(display-p3 .1373 .1647 .2471);stroke-opacity:1" stroke-width="3.8" stroke-linejoin="round"/><path d="M23.3 27.6a1.9 1.9 0 0 0-3.2-1.3L13.4 33c-.4.3-.6.8-.6 1.3v15.1a1.9 1.9 0 0 0 3.3 1.3l6.7-6.7c.3-.3.5-.8.5-1.3V27.6Z" fill="#232A3F" stroke="#232A3F" style="fill:color(display-p3 .1373 .1647 .2471);fill-opacity:1;stroke:color(display-p3 .1373 .1647 .2471);stroke-opacity:1" stroke-width="3.8" stroke-linejoin="round"/><path d="M22.8 44a1.9 1.9 0 0 0-1.4-3.2H10.6c-.5 0-1 .2-1.3.5l-6.7 6.8a1.9 1.9 0 0 0 1.3 3.2h10.8c.5 0 1-.2 1.4-.6l6.7-6.7Z" fill="#232A3F" stroke="#232A3F" style="fill:color(display-p3 .1373 .1647 .2471);fill-opacity:1;stroke:color(display-p3 .1373 .1647 .2471);stroke-opacity:1" stroke-width="3.8" stroke-linejoin="round"/><mask id="b" maskUnits="userSpaceOnUse" x="6.6" y=".1" width="397" height="47" fill="#000"><path fill="#fff" d="M6.6.1h397v47H6.6z"/><path d="M21.4 42.7H10.6V4h11.5l10.7 14.5 5.7 8.8h.7l-.5-8.4V4.1h10.8v38.6H38L26.6 27.8l-4.9-7.6H21l.4 7.4v15ZM62.6 11H51.8V4.1h10.8v7Zm0 31.7H51.8v-29h10.8v29ZM86.6 42.7H79c-7.2 0-11.5-3.5-11.5-11v-9.2h-4.3v-8.8h4.3v-5h10.8v5h8.3v8.8h-8.3v7.6c0 2.3.6 2.8 3.1 2.8h5.2v9.8ZM98.8 42.7H88v-29h10.1v7.6h.6c.8-4.8 3.8-8.2 9.6-8.2 6.3 0 8.9 4.2 8.9 10V29h-10.8v-3.4c0-2.4-1-3.3-3.8-3.3-3 0-3.8.9-3.8 3.2v17.3ZM134.4 43.2c-10.1 0-17-5.7-17-15 0-9.5 6.9-15 17-15 10 0 16.9 5.5 16.9 15 0 9.3-6.9 15-17 15Zm0-9.5c4.8 0 6.2-1.3 6.2-5.5s-1.4-5.6-6.2-5.6c-5 0-6.3 1.4-6.3 5.6 0 4.2 1.4 5.5 6.3 5.5ZM170.4 42.7h-10.8V4h14.6l7.1 16 3.8 10h.7l3.7-10 6.7-16h14.7v38.6H200v-16l.4-6.4h-.7l-2.2 6.4-5.7 13.7h-13.1l-5.8-13.7-2.2-6.4h-.7l.4 6.4v16ZM229.2 43.2c-10 0-16.9-5.7-16.9-15 0-9.5 6.8-15 16.9-15 10 0 16.9 5.5 16.9 15 0 9.3-6.8 15-16.9 15Zm0-9.5c4.9 0 6.2-1.3 6.2-5.5s-1.3-5.6-6.2-5.6-6.2 1.4-6.2 5.6c0 4.2 1.3 5.5 6.2 5.5ZM260.7 43.2c-8.8 0-13.7-5.7-13.7-15 0-9.5 4.7-15 13.3-15 6.8 0 10 3.1 10.9 8h.5v-17h10.9v38.5h-10.2v-7.9h-.5c-1 5.8-4.4 8.4-11.2 8.4Zm-2.8-15c0 3.8 1.7 5.2 6.7 5.2 4.8 0 7.1-1 7.1-5.2v-.4c0-4-2.3-4.9-7-4.9-5 0-6.8 1.4-6.8 5.3ZM296.8 43.2c-8.2 0-12-4.7-12-11V13.8h10.9v14.6c0 4 1.5 5.3 6.5 5.3s6.2-1.2 6.2-5v-15h10.8v29H309V34h-.6c-.7 4.8-3.9 9.3-11.7 9.3ZM332 42.7h-10.7V4H332v38.6ZM350.5 43.2c-9.8 0-16.7-4.2-16.7-15 0-9.5 6.8-15 16.5-15 10 0 16.4 5 16.4 14.2 0 1 0 1.8-.2 2.8h-22.7c.2 3.5 1.7 4.5 6.3 4.5 4.4 0 5.5-.8 5.5-2.5v-.6h10.8v.7c0 6.4-6.1 11-15.9 11Zm-.4-21.8c-4 0-5.7.9-6.1 3.3h12.2c-.4-2.4-2.1-3.3-6.1-3.3ZM384 43.2c-10.2 0-15.7-4-15.7-10.6v-.2h10.8v.5c0 1.7 1 1.8 5 1.8 3.7 0 4.3-.4 4.3-1.3 0-1-.5-1.2-3.2-1.5l-8.4-1c-6-.5-9.2-3.4-9.2-8.2 0-5.2 4-9.6 15-9.6 10 0 15.4 3.6 15.4 10.8v.2h-10.8v-.3c0-1.5-.6-2.2-5-2.2-3.5 0-4 .4-4 1.5 0 .8.5 1.2 3.9 1.6l5.7.6c8.5 1 11.2 3.7 11.2 8.6 0 5.4-5.4 9.3-15 9.3Z"/></mask><path d="M21.4 42.7H10.6V4h11.5l10.7 14.5 5.7 8.8h.7l-.5-8.4V4.1h10.8v38.6H38L26.6 27.8l-4.9-7.6H21l.4 7.4v15ZM62.6 11H51.8V4.1h10.8v7Zm0 31.7H51.8v-29h10.8v29ZM86.6 42.7H79c-7.2 0-11.5-3.5-11.5-11v-9.2h-4.3v-8.8h4.3v-5h10.8v5h8.3v8.8h-8.3v7.6c0 2.3.6 2.8 3.1 2.8h5.2v9.8ZM98.8 42.7H88v-29h10.1v7.6h.6c.8-4.8 3.8-8.2 9.6-8.2 6.3 0 8.9 4.2 8.9 10V29h-10.8v-3.4c0-2.4-1-3.3-3.8-3.3-3 0-3.8.9-3.8 3.2v17.3ZM134.4 43.2c-10.1 0-17-5.7-17-15 0-9.5 6.9-15 17-15 10 0 16.9 5.5 16.9 15 0 9.3-6.9 15-17 15Zm0-9.5c4.8 0 6.2-1.3 6.2-5.5s-1.4-5.6-6.2-5.6c-5 0-6.3 1.4-6.3 5.6 0 4.2 1.4 5.5 6.3 5.5ZM170.4 42.7h-10.8V4h14.6l7.1 16 3.8 10h.7l3.7-10 6.7-16h14.7v38.6H200v-16l.4-6.4h-.7l-2.2 6.4-5.7 13.7h-13.1l-5.8-13.7-2.2-6.4h-.7l.4 6.4v16ZM229.2 43.2c-10 0-16.9-5.7-16.9-15 0-9.5 6.8-15 16.9-15 10 0 16.9 5.5 16.9 15 0 9.3-6.8 15-16.9 15Zm0-9.5c4.9 0 6.2-1.3 6.2-5.5s-1.3-5.6-6.2-5.6-6.2 1.4-6.2 5.6c0 4.2 1.3 5.5 6.2 5.5ZM260.7 43.2c-8.8 0-13.7-5.7-13.7-15 0-9.5 4.7-15 13.3-15 6.8 0 10 3.1 10.9 8h.5v-17h10.9v38.5h-10.2v-7.9h-.5c-1 5.8-4.4 8.4-11.2 8.4Zm-2.8-15c0 3.8 1.7 5.2 6.7 5.2 4.8 0 7.1-1 7.1-5.2v-.4c0-4-2.3-4.9-7-4.9-5 0-6.8 1.4-6.8 5.3ZM296.8 43.2c-8.2 0-12-4.7-12-11V13.8h10.9v14.6c0 4 1.5 5.3 6.5 5.3s6.2-1.2 6.2-5v-15h10.8v29H309V34h-.6c-.7 4.8-3.9 9.3-11.7 9.3ZM332 42.7h-10.7V4H332v38.6ZM350.5 43.2c-9.8 0-16.7-4.2-16.7-15 0-9.5 6.8-15 16.5-15 10 0 16.4 5 16.4 14.2 0 1 0 1.8-.2 2.8h-22.7c.2 3.5 1.7 4.5 6.3 4.5 4.4 0 5.5-.8 5.5-2.5v-.6h10.8v.7c0 6.4-6.1 11-15.9 11Zm-.4-21.8c-4 0-5.7.9-6.1 3.3h12.2c-.4-2.4-2.1-3.3-6.1-3.3ZM384 43.2c-10.2 0-15.7-4-15.7-10.6v-.2h10.8v.5c0 1.7 1 1.8 5 1.8 3.7 0 4.3-.4 4.3-1.3 0-1-.5-1.2-3.2-1.5l-8.4-1c-6-.5-9.2-3.4-9.2-8.2 0-5.2 4-9.6 15-9.6 10 0 15.4 3.6 15.4 10.8v.2h-10.8v-.3c0-1.5-.6-2.2-5-2.2-3.5 0-4 .4-4 1.5 0 .8.5 1.2 3.9 1.6l5.7.6c8.5 1 11.2 3.7 11.2 8.6 0 5.4-5.4 9.3-15 9.3Z" fill="#fff" style="fill:#fff;fill-opacity:1"/><path d="M21.4 42.7H10.6V4h11.5l10.7 14.5 5.7 8.8h.7l-.5-8.4V4.1h10.8v38.6H38L26.6 27.8l-4.9-7.6H21l.4 7.4v15ZM62.6 11H51.8V4.1h10.8v7Zm0 31.7H51.8v-29h10.8v29ZM86.6 42.7H79c-7.2 0-11.5-3.5-11.5-11v-9.2h-4.3v-8.8h4.3v-5h10.8v5h8.3v8.8h-8.3v7.6c0 2.3.6 2.8 3.1 2.8h5.2v9.8ZM98.8 42.7H88v-29h10.1v7.6h.6c.8-4.8 3.8-8.2 9.6-8.2 6.3 0 8.9 4.2 8.9 10V29h-10.8v-3.4c0-2.4-1-3.3-3.8-3.3-3 0-3.8.9-3.8 3.2v17.3ZM134.4 43.2c-10.1 0-17-5.7-17-15 0-9.5 6.9-15 17-15 10 0 16.9 5.5 16.9 15 0 9.3-6.9 15-17 15Zm0-9.5c4.8 0 6.2-1.3 6.2-5.5s-1.4-5.6-6.2-5.6c-5 0-6.3 1.4-6.3 5.6 0 4.2 1.4 5.5 6.3 5.5ZM170.4 42.7h-10.8V4h14.6l7.1 16 3.8 10h.7l3.7-10 6.7-16h14.7v38.6H200v-16l.4-6.4h-.7l-2.2 6.4-5.7 13.7h-13.1l-5.8-13.7-2.2-6.4h-.7l.4 6.4v16ZM229.2 43.2c-10 0-16.9-5.7-16.9-15 0-9.5 6.8-15 16.9-15 10 0 16.9 5.5 16.9 15 0 9.3-6.8 15-16.9 15Zm0-9.5c4.9 0 6.2-1.3 6.2-5.5s-1.3-5.6-6.2-5.6-6.2 1.4-6.2 5.6c0 4.2 1.3 5.5 6.2 5.5ZM260.7 43.2c-8.8 0-13.7-5.7-13.7-15 0-9.5 4.7-15 13.3-15 6.8 0 10 3.1 10.9 8h.5v-17h10.9v38.5h-10.2v-7.9h-.5c-1 5.8-4.4 8.4-11.2 8.4Zm-2.8-15c0 3.8 1.7 5.2 6.7 5.2 4.8 0 7.1-1 7.1-5.2v-.4c0-4-2.3-4.9-7-4.9-5 0-6.8 1.4-6.8 5.3ZM296.8 43.2c-8.2 0-12-4.7-12-11V13.8h10.9v14.6c0 4 1.5 5.3 6.5 5.3s6.2-1.2 6.2-5v-15h10.8v29H309V34h-.6c-.7 4.8-3.9 9.3-11.7 9.3ZM332 42.7h-10.7V4H332v38.6ZM350.5 43.2c-9.8 0-16.7-4.2-16.7-15 0-9.5 6.8-15 16.5-15 10 0 16.4 5 16.4 14.2 0 1 0 1.8-.2 2.8h-22.7c.2 3.5 1.7 4.5 6.3 4.5 4.4 0 5.5-.8 5.5-2.5v-.6h10.8v.7c0 6.4-6.1 11-15.9 11Zm-.4-21.8c-4 0-5.7.9-6.1 3.3h12.2c-.4-2.4-2.1-3.3-6.1-3.3ZM384 43.2c-10.2 0-15.7-4-15.7-10.6v-.2h10.8v.5c0 1.7 1 1.8 5 1.8 3.7 0 4.3-.4 4.3-1.3 0-1-.5-1.2-3.2-1.5l-8.4-1c-6-.5-9.2-3.4-9.2-8.2 0-5.2 4-9.6 15-9.6 10 0 15.4 3.6 15.4 10.8v.2h-10.8v-.3c0-1.5-.6-2.2-5-2.2-3.5 0-4 .4-4 1.5 0 .8.5 1.2 3.9 1.6l5.7.6c8.5 1 11.2 3.7 11.2 8.6 0 5.4-5.4 9.3-15 9.3Z" stroke="#232A3F" style="stroke:color(display-p3 .1373 .1647 .2471);stroke-opacity:1" stroke-width="7.6" stroke-linejoin="round" mask="url(#b)"/></svg>