<svg viewBox="0 0 203 368" fill="none" xmlns="http://www.w3.org/2000/svg">
  <path d="M72.6773 88.7769V27.0517C72.6773 18.7389 79.4161 12 87.729 12H117.832C126.145 12 132.884 18.7389 132.884 27.0517V63M72.6773 88.7769L25.1007 135.055C16.7251 143.202 12 154.39 12 166.075V185.305M72.6773 88.7769H93.3398M12 185.305C82.1694 185.305 121.511 185.305 191.68 185.305M12 185.305V301.721M191.68 185.305V165.674C191.68 154.226 187.143 143.245 179.064 135.134L167.84 123.867M191.68 185.305V301.721M191.68 301.721V325.456C191.68 342.601 177.781 356.5 160.636 356.5H43.0442C25.899 356.5 12 342.601 12 325.456V301.721M191.68 301.721H12" stroke="currentColor" stroke-width="10" />
  <path d="M133.354 35.6328H171.331C177.046 35.6328 181.679 40.2658 181.679 45.9809V58.2104C181.679 63.9255 177.046 68.5585 171.331 68.5585H158.34" stroke="currentColor" stroke-width="10" stroke-linecap="round" />
  <circle cx="133.551" cy="104.211" r="40.9219" stroke="currentColor" stroke-width="10" />
  <path d="M133.08 106.562L124.614 94.3325" stroke="currentColor" stroke-width="10" stroke-linecap="round" />
  <path d="M42.3398 273.531V219.825C42.3398 219.046 43.371 218.77 43.7595 219.445L74.764 273.292C75.1525 273.967 76.1836 273.691 76.1836 272.913V215.74C76.1836 215.32 76.5241 214.979 76.9442 214.979H141.59" stroke="currentColor" stroke-width="10" stroke-linecap="round" />
  <rect x="95.8896" y="236.53" width="27.9867" height="37.5974" rx="8.40102" stroke="currentColor" stroke-width="10" />
  <path d="M162.383 239.381H144.698C144.278 239.381 143.937 239.722 143.937 240.142V255.662C143.937 256.082 144.278 256.422 144.698 256.422H160.286C160.706 256.422 161.047 256.763 161.047 257.183V272.702C161.047 273.122 160.706 273.463 160.286 273.463H142.786" stroke="currentColor" stroke-width="10" stroke-linecap="round" />
  <path d="M162.139 214.86L150.309 219.902L150.309 214.86L150.309 209.283L162.139 214.86Z" stroke="currentColor" stroke-width="16.0088" stroke-linejoin="round" />
</svg>