<?xml version="1.0" standalone="no"?>
<!DOCTYPE svg PUBLIC "-//W3C//DTD SVG 20010904//EN"
 "http://www.w3.org/TR/2001/REC-SVG-20010904/DTD/svg10.dtd">
<svg version="1.0" xmlns="http://www.w3.org/2000/svg"
 width="512.000000pt" height="512.000000pt" viewBox="0 0 512.000000 512.000000"
 preserveAspectRatio="xMidYMid meet">
<metadata>
Created by potrace 1.14, written by Peter Selinger 2001-2017
</metadata>
<g transform="translate(0.000000,512.000000) scale(0.100000,-0.100000)"
fill="#000000" stroke="none">
<path d="M1955 4830 c-11 -4 -31 -20 -45 -35 -23 -25 -25 -34 -28 -150 l-4
-124 -284 -3 -284 -3 -32 -33 -33 -32 0 -130 0 -130 33 -32 32 -33 285 -3 285
-3 0 -172 0 -172 -289 -290 c-247 -247 -294 -299 -318 -350 l-28 -60 -2 -1241
c-3 -1107 -1 -1246 13 -1294 31 -103 93 -175 194 -224 l65 -31 1045 0 1045 0
68 33 c83 41 130 88 170 172 l32 65 0 1260 0 1260 -32 65 c-23 46 -58 91 -122
155 l-90 90 4 95 c8 168 -38 293 -150 406 -59 60 -184 134 -226 134 -16 0 -19
8 -19 50 l0 49 285 3 285 3 32 33 33 32 0 130 0 130 -33 32 -32 33 -284 3
-284 3 -4 124 -3 125 -33 32 -32 33 -276 3 c-227 2 -280 0 -305 -12 -25 -13
-33 -13 -57 0 -21 11 -81 14 -292 13 -146 0 -274 -4 -285 -9z"/>
</g>
</svg>
